# 3ds Max Wavefront OBJ Exporter v0.97b - (c)2007 guruware
# File Created: 01.10.2016 11:22:50

mtllib street_light.mtl

#
# object StreetLight
#

v  0.0000 -36.0749 121.6776
v  -1.2770 -33.1066 120.7731
v  -2.2118 -34.3615 120.7731
v  -2.5539 -36.0749 120.7731
v  -2.2118 -37.7883 120.7731
v  -1.2770 -39.0425 120.7731
v  -0.0000 -39.5016 120.7731
v  1.2770 -39.0425 120.7731
v  2.2118 -37.7883 120.7731
v  2.5539 -36.0749 120.7731
v  2.2118 -34.3615 120.7731
v  1.2770 -33.1066 120.7731
v  -1.0809 -30.2088 119.4195
v  -1.6013 -30.8708 119.4195
v  -2.7735 -33.3265 119.4195
v  -3.2025 -36.0749 119.4195
v  -2.7735 -38.2234 119.4195
v  -1.6013 -39.7963 119.4195
v  -0.0000 -40.3720 119.4195
v  1.6013 -39.7963 119.4195
v  2.7735 -38.2234 119.4195
v  3.2025 -36.0749 119.4195
v  2.7735 -33.3265 119.4195
v  1.6013 -30.8708 119.4195
v  1.0809 -30.2088 119.4195
v  -1.0809 -30.2094 118.2436
v  -1.6013 -30.8708 118.2436
v  -2.7735 -33.3265 118.2436
v  -3.2025 -36.0749 118.2436
v  -2.7735 -38.2234 118.2436
v  -1.6013 -39.7963 118.2436
v  -0.0000 -40.3720 118.2436
v  1.6013 -39.7963 118.2436
v  2.7735 -38.2234 118.2436
v  3.2025 -36.0749 118.2436
v  2.7735 -33.3265 118.2436
v  1.6013 -30.8708 118.2436
v  1.0809 -30.2094 118.2436
v  -0.8485 -30.7026 118.1049
v  -1.5431 -31.3247 118.1049
v  -2.6728 -33.5335 118.1049
v  -3.0863 -36.0749 118.1049
v  -2.6728 -38.1454 118.1049
v  -1.5431 -39.6612 118.1049
v  -0.0000 -40.2160 118.1049
v  1.5431 -39.6612 118.1049
v  2.6728 -38.1454 118.1049
v  3.0863 -36.0749 118.1049
v  2.6728 -33.5335 118.1049
v  1.5431 -31.3247 118.1049
v  1.3309 -32.9819 118.1049
v  -0.0000 -32.5034 118.1049
v  0.8485 -30.7026 118.1049
v  -0.0000 -33.4260 117.4131
v  -0.9871 -33.7809 117.4131
v  -1.3309 -32.9819 118.1049
v  -1.7097 -34.7505 117.4131
v  -2.3051 -34.2892 118.1049
v  -1.9742 -36.0749 117.4131
v  -2.6617 -36.0749 118.1049
v  -1.7097 -37.3993 117.4131
v  -2.3051 -37.8606 118.1049
v  -0.9871 -38.3689 117.4131
v  -1.3309 -39.1679 118.1049
v  -0.0000 -38.7237 117.4131
v  -0.0000 -39.6463 118.1049
v  0.9871 -38.3689 117.4131
v  1.3309 -39.1679 118.1049
v  1.7097 -37.3993 117.4131
v  2.3051 -37.8606 118.1049
v  1.9742 -36.0749 117.4131
v  2.6617 -36.0749 118.1049
v  1.7097 -34.7505 117.4131
v  2.3051 -34.2892 118.1049
v  0.9871 -33.7809 117.4131
v  -0.0000 -36.0749 116.9279
v  1.0809 -30.2088 120.3059
v  -1.0809 -30.2088 120.3059
v  -1.0809 -29.5383 120.3059
v  1.0809 -29.5383 120.3059
v  1.0809 -29.5383 118.2436
v  -1.0809 -29.5383 118.2436
v  0.0000 -0.3376 109.9513
v  0.0000 -5.2856 113.6034
v  -0.4755 -5.1082 113.9019
v  -0.4755 -0.1325 110.2293
v  -0.2939 -4.8210 114.3847
v  -0.2939 0.1995 110.6791
v  0.2939 -4.8210 114.3847
v  0.2939 0.1995 110.6791
v  0.4755 -5.1082 113.9019
v  0.4755 -0.1325 110.2293
v  0.0000 -10.7916 116.1762
v  -0.4755 -10.6702 116.5008
v  -0.2939 -10.4738 117.0261
v  0.2939 -10.4738 117.0261
v  0.4755 -10.6702 116.5008
v  -0.0000 -17.1123 117.9838
v  -0.4755 -17.0461 118.3242
v  -0.2939 -16.9391 118.8750
v  0.2939 -16.9391 118.8750
v  0.4755 -17.0461 118.3242
v  -0.0000 -24.4613 118.7610
v  -0.4755 -24.4431 119.1065
v  -0.2939 -24.4136 119.6655
v  0.2939 -24.4136 119.6655
v  0.4755 -24.4431 119.1065
v  -0.0000 -29.6131 118.7610
v  -0.4755 -29.6131 119.1065
v  -0.2939 -29.6131 119.6655
v  0.2939 -29.6131 119.6655
v  0.4755 -29.6131 119.1065
v  1.1503 0.2375 40.0000
v  0.8134 1.0509 40.0000
v  0.8134 1.0509 80.0000
v  1.1503 0.2375 80.0000
v  -0.0000 1.3878 40.0000
v  -0.0000 1.3878 80.0000
v  -0.8134 1.0509 40.0000
v  -0.8134 1.0509 80.0000
v  -1.1503 0.2375 40.0000
v  -1.1503 0.2375 80.0000
v  -0.8134 -0.5758 40.0000
v  -0.8134 -0.5758 80.0000
v  0.0000 -0.9127 40.0000
v  0.0000 -0.9127 80.0000
v  0.8134 -0.5758 40.0000
v  0.8134 -0.5758 80.0000
v  -0.0000 1.3803 0.0000
v  0.8134 1.0434 0.0000
v  1.1503 0.2300 0.0000
v  0.8134 -0.5834 0.0000
v  0.0000 -0.9203 0.0000
v  -0.8134 -0.5834 0.0000
v  -1.1503 0.2300 0.0000
v  -0.8134 1.0434 0.0000
v  -0.8134 -0.5758 120.0000
v  0.0000 -0.9127 120.0000
v  0.8134 -0.5758 120.0000
v  1.1503 0.2375 120.0000
v  0.8134 1.0509 120.0000
v  -0.0000 1.3878 120.0000
v  -0.8134 1.0509 120.0000
v  -1.1503 0.2375 120.0000
# 144 vertices

vn 0.0000 0.0079 1.0000
vn -0.2900 0.3723 0.8816
vn -0.5907 0.3019 0.7483
vn -0.7007 0.0000 0.7134
vn -0.6068 -0.3504 0.7134
vn -0.3504 -0.6068 0.7134
vn -0.0000 -0.7007 0.7134
vn 0.3504 -0.6068 0.7134
vn 0.6068 -0.3504 0.7134
vn 0.6956 -0.0099 0.7183
vn 0.5805 0.2778 0.7654
vn 0.2419 0.3646 0.8992
vn -0.6601 0.6962 0.2820
vn -0.7064 0.6020 0.3722
vn -0.8729 0.3919 0.2908
vn -0.9752 -0.0211 0.2203
vn -0.8459 -0.4884 0.2141
vn -0.4884 -0.8459 0.2141
vn -0.0000 -0.9768 0.2141
vn 0.4884 -0.8459 0.2141
vn 0.8459 -0.4884 0.2141
vn 0.9763 -0.0263 0.2148
vn 0.8868 0.3820 0.2602
vn 0.7016 0.6112 0.3664
vn 0.6600 0.6963 0.2821
vn -0.4259 0.5627 -0.7085
vn -0.6370 0.5643 -0.5252
vn -0.8399 0.3677 -0.3992
vn -0.9445 -0.0238 -0.3276
vn -0.8190 -0.4728 -0.3250
vn -0.4728 -0.8190 -0.3250
vn -0.0000 -0.9457 -0.3250
vn 0.4728 -0.8190 -0.3250
vn 0.8190 -0.4729 -0.3250
vn 0.9445 -0.0238 -0.3276
vn 0.8399 0.3677 -0.3992
vn 0.6370 0.5643 -0.5252
vn 0.4258 0.5627 -0.7086
vn -0.0561 0.1876 -0.9806
vn -0.2106 0.1731 -0.9621
vn -0.3862 0.1358 -0.9124
vn -0.4724 -0.0123 -0.8813
vn -0.4131 -0.2385 -0.8789
vn -0.2385 -0.4131 -0.8789
vn -0.0000 -0.4771 -0.8789
vn 0.2385 -0.4131 -0.8789
vn 0.4131 -0.2385 -0.8789
vn 0.4724 -0.0123 -0.8813
vn 0.3862 0.1358 -0.9124
vn 0.2106 0.1731 -0.9621
vn 0.0000 0.0000 -1.0000
vn 0.0561 0.1876 -0.9806
vn 0.0000 0.5249 -0.8512
vn -0.2624 0.4545 -0.8512
vn -0.3546 0.6142 -0.7049
vn 0.0000 0.7093 -0.7049
vn -0.4545 0.2624 -0.8512
vn -0.6142 0.3546 -0.7049
vn -0.5249 0.0000 -0.8512
vn -0.7093 0.0000 -0.7049
vn -0.4545 -0.2624 -0.8512
vn -0.6142 -0.3546 -0.7049
vn -0.2624 -0.4545 -0.8512
vn -0.3546 -0.6142 -0.7049
vn -0.0000 -0.5249 -0.8512
vn -0.0000 -0.7093 -0.7049
vn 0.2624 -0.4545 -0.8512
vn 0.3546 -0.6142 -0.7049
vn 0.4545 -0.2624 -0.8512
vn 0.6142 -0.3546 -0.7049
vn 0.5249 -0.0000 -0.8512
vn 0.7093 -0.0000 -0.7049
vn 0.4545 0.2624 -0.8512
vn 0.6142 0.3546 -0.7049
vn 0.2624 0.4545 -0.8512
vn 0.3546 0.6142 -0.7049
vn 0.0000 -0.0000 -1.0000
vn 0.0000 0.1092 0.9940
vn -0.0000 1.0000 0.0000
vn -0.9959 0.0904 0.0000
vn 0.9959 0.0904 -0.0000
vn -1.0000 -0.0000 0.0000
vn -1.0000 0.0000 0.0000
vn 0.0000 0.0000 1.0000
vn 1.0000 0.0000 -0.0000
vn -0.0000 0.0000 -1.0000
vn 0.0000 -0.7037 -0.7105
vn -0.0000 -0.6294 -0.7770
vn -0.9615 -0.1637 -0.2208
vn -0.9077 -0.2953 -0.2982
vn -0.5589 0.5127 0.6517
vn -0.6152 0.5548 0.5602
vn 0.5589 0.5127 0.6517
vn 0.6152 0.5548 0.5602
vn 0.9615 -0.1637 -0.2208
vn 0.9077 -0.2953 -0.2982
vn -0.0000 -0.4532 -0.8914
vn -0.9606 -0.1190 -0.2511
vn -0.5664 0.3665 0.7382
vn 0.5664 0.3665 0.7382
vn 0.9606 -0.1190 -0.2511
vn 0.0000 -0.2557 -0.9668
vn -0.9627 -0.0642 -0.2627
vn -0.5675 0.2054 0.7974
vn 0.5675 0.2054 0.7974
vn 0.9627 -0.0642 -0.2627
vn 0.0000 -0.0713 -0.9975
vn -0.9586 -0.0194 -0.2841
vn -0.5756 0.0574 0.8157
vn 0.5756 0.0574 0.8157
vn 0.9586 -0.0194 -0.2841
vn -0.9511 0.0000 -0.3090
vn -0.5878 0.0000 0.8090
vn 0.5878 -0.0000 0.8090
vn 0.9511 -0.0000 -0.3090
vn 0.6299 0.7767 -0.0001
vn 0.6299 0.7766 0.0000
vn 1.0000 -0.0000 0.0000
vn 0.0000 1.0000 -0.0001
vn -0.6299 0.7767 -0.0001
vn -0.6299 0.7766 0.0000
vn -1.0000 0.0000 -0.0000
vn -0.6299 -0.7766 0.0001
vn -0.6299 -0.7766 0.0000
vn 0.0000 -1.0000 0.0001
vn 0.0000 -1.0000 0.0000
vn 0.6299 -0.7766 0.0001
vn 0.6299 -0.7766 0.0000
vn 0.6300 0.7766 -0.0001
vn 0.0000 1.0000 0.0000
vn -0.0000 1.0000 -0.0001
vn -0.6300 0.7766 -0.0001
vn -1.0000 -0.0000 -0.0000
vn -0.6299 -0.7767 0.0001
vn 0.6299 -0.7767 0.0001
vn -0.0000 -0.0000 -1.0000
# 136 vertex normals

vt 0.4875 0.6668 0.0000
vt 0.2333 0.4990 0.0000
vt 0.1264 0.4273 0.0000
vt 0.1812 0.3849 0.0000
vt 0.2449 0.3740 0.0000
vt 0.3040 0.3938 0.0000
vt 0.3459 0.4392 0.0000
vt 0.3610 0.4990 0.0000
vt 0.3459 0.5588 0.0000
vt 0.3040 0.6042 0.0000
vt 0.2449 0.6240 0.0000
vt 0.6401 0.7360 0.0000
vt 0.4875 0.7121 0.0000
vt 0.6401 0.7360 0.0000
vt 0.1812 0.6131 0.0000
vt 0.1264 0.5707 0.0000
vt 0.0101 0.3809 0.0000
vt 0.0402 0.3635 0.0000
vt 0.1410 0.3183 0.0000
vt 0.2532 0.3043 0.0000
vt 0.3432 0.3350 0.0000
vt 0.4083 0.4056 0.0000
vt 0.4319 0.4990 0.0000
vt 0.4083 0.5924 0.0000
vt 0.4875 0.6668 0.0000
vt 0.4875 0.7121 0.0000
vt 0.0558 0.9845 0.0000
vt 0.1618 0.9845 0.0000
vt 0.2639 0.9845 0.0000
vt 0.3448 0.9845 0.0000
vt 0.4257 0.9845 0.0000
vt 0.5066 0.9845 0.0000
vt 0.5875 0.9845 0.0000
vt 0.6684 0.9845 0.0000
vt 0.7493 0.9845 0.0000
vt 0.8515 0.9845 0.0000
vt 0.9575 0.9845 0.0000
vt 0.4875 0.6066 0.0000
vt 0.6053 0.4022 0.0000
vt 0.4981 0.3845 0.0000
vt 0.4652 0.4106 0.0000
vt 0.5793 0.4648 0.0000
vt 0.6031 0.3981 0.0000
vt 0.6203 0.3258 0.0000
vt 0.6681 0.3492 0.0000
vt 0.7570 0.3043 0.0000
vt 0.7570 0.3314 0.0000
vt 0.8638 0.3258 0.0000
vt 0.8458 0.3492 0.0000
vt 0.9420 0.3845 0.0000
vt 0.9108 0.3981 0.0000
vt 0.9707 0.4648 0.0000
vt 0.5818 0.4644 0.0000
vt 0.6270 0.4644 0.0000
vt 0.6443 0.4183 0.0000
vt 0.6692 0.3566 0.0000
vt 0.6918 0.3845 0.0000
vt 0.7566 0.3400 0.0000
vt 0.7566 0.3721 0.0000
vt 0.8439 0.3566 0.0000
vt 0.8214 0.3845 0.0000
vt 0.9079 0.4022 0.0000
vt 0.8688 0.4183 0.0000
vt 0.9346 0.4648 0.0000
vt 0.9313 0.4644 0.0000
vt 0.8861 0.4644 0.0000
vt 0.9079 0.5266 0.0000
vt 0.8688 0.5106 0.0000
vt 0.8439 0.5722 0.0000
vt 0.8214 0.5444 0.0000
vt 0.7566 0.5889 0.0000
vt 0.7566 0.5567 0.0000
vt 0.6692 0.5722 0.0000
vt 0.6918 0.5444 0.0000
vt 0.6053 0.5266 0.0000
vt 0.6443 0.5106 0.0000
vt 0.7566 0.4644 0.0000
vt 0.3432 0.6630 0.0000
vt 0.4522 0.6066 0.0000
vt 0.4522 0.7121 0.0000
vt 0.2532 0.6937 0.0000
vt 0.4522 0.7121 0.0000
vt 0.4875 0.6066 0.0000
vt 0.4522 0.6066 0.0000
vt 0.1410 0.6797 0.0000
vt 0.0402 0.6345 0.0000
vt 0.3034 0.7489 0.0000
vt 0.3034 0.8488 0.0000
vt 0.2167 0.8488 0.0000
vt 0.9925 0.9845 0.0000
vt 0.0208 0.9845 0.0000
vt 0.2167 0.7489 0.0000
vt 0.9420 0.5450 0.0000
vt 0.9108 0.5315 0.0000
vt 0.0606 0.7398 0.0000
vt 0.1881 0.7489 0.0000
vt 0.1881 0.8488 0.0000
vt 0.0606 0.8579 0.0000
vt 0.0101 0.6171 0.0000
vt 0.3316 0.7489 0.0000
vt 0.3316 0.8488 0.0000
vt 0.0558 0.9411 0.0000
vt 0.1618 0.9411 0.0000
vt 0.2639 0.9411 0.0000
vt 0.3448 0.9411 0.0000
vt 0.4257 0.9411 0.0000
vt 0.5066 0.9411 0.0000
vt 0.5875 0.9411 0.0000
vt 0.6684 0.9411 0.0000
vt 0.7493 0.9411 0.0000
vt 0.8515 0.9411 0.0000
vt 0.9575 0.9411 0.0000
vt 0.9925 0.9411 0.0000
vt 0.0208 0.9411 0.0000
vt 0.8638 0.6038 0.0000
vt 0.8458 0.5803 0.0000
vt 0.7570 0.6253 0.0000
vt 0.7570 0.5982 0.0000
vt 0.6203 0.6038 0.0000
vt 0.6681 0.5803 0.0000
vt 0.4981 0.5450 0.0000
vt 0.6031 0.5315 0.0000
vt 0.4652 0.5190 0.0000
vt 0.6810 0.2353 0.0000
vt 0.5370 0.2353 0.0000
vt 0.5370 0.2196 0.0000
vt 0.6810 0.2196 0.0000
vt 0.5370 0.2042 0.0000
vt 0.6810 0.2042 0.0000
vt 0.5370 0.2665 0.0000
vt 0.6810 0.2665 0.0000
vt 0.5370 0.2510 0.0000
vt 0.6810 0.2510 0.0000
vt 0.4021 0.2353 0.0000
vt 0.4021 0.2196 0.0000
vt 0.4021 0.2042 0.0000
vt 0.4021 0.2665 0.0000
vt 0.4021 0.2510 0.0000
vt 0.2621 0.2353 0.0000
vt 0.2621 0.2196 0.0000
vt 0.2621 0.2042 0.0000
vt 0.2621 0.2665 0.0000
vt 0.2621 0.2510 0.0000
vt 0.1090 0.2353 0.0000
vt 0.1090 0.2196 0.0000
vt 0.1090 0.2042 0.0000
vt 0.1090 0.2665 0.0000
vt 0.1090 0.2510 0.0000
vt 0.0031 0.2353 0.0000
vt 0.0031 0.2196 0.0000
vt 0.0031 0.2042 0.0000
vt 0.0031 0.2665 0.0000
vt 0.0031 0.2510 0.0000
vt 1.0009 0.1398 0.0000
vt 1.0009 0.1606 0.0000
vt 1.0009 0.0007 0.0000
vt 1.0009 0.0262 0.0000
vt 1.0009 0.0470 0.0000
vt 1.0009 0.0679 0.0000
vt 1.0009 0.0934 0.0000
vt 1.0009 0.1190 0.0000
vt 0.0010 0.1398 0.0000
vt 0.0010 0.1606 0.0000
vt 0.0010 0.0007 0.0000
vt 0.0010 0.0262 0.0000
vt 0.0010 0.0470 0.0000
vt 0.0010 0.0679 0.0000
vt 0.0010 0.0934 0.0000
vt 0.0010 0.1190 0.0000
vt 1.0009 0.1862 0.0000
vt 0.0010 0.1862 0.0000
vt 0.0288 0.5433 0.0000
vt 0.0631 0.5575 0.0000
vt 0.0974 0.5433 0.0000
vt 0.1116 0.5090 0.0000
vt 0.0974 0.4747 0.0000
vt 0.0631 0.4605 0.0000
vt 0.0288 0.4747 0.0000
vt 0.0145 0.5090 0.0000
vt 0.0145 0.5090 0.0000
vt 0.0288 0.4747 0.0000
vt 0.0631 0.4605 0.0000
vt 0.0974 0.4747 0.0000
vt 0.1116 0.5090 0.0000
vt 0.0974 0.5433 0.0000
vt 0.0631 0.5575 0.0000
vt 0.0288 0.5433 0.0000
vt 0.5370 0.2828 0.0000
vt 0.6810 0.2828 0.0000
vt 0.4021 0.2828 0.0000
vt 0.2621 0.2828 0.0000
vt 0.1090 0.2828 0.0000
vt 0.0031 0.2828 0.0000
vt 0.0012 0.1606 0.0000
vt 0.0009 0.1606 0.0000
vt 0.0009 0.1398 0.0000
vt 0.0012 0.1398 0.0000
vt 0.0012 0.1862 0.0000
vt 0.0009 0.1862 0.0000
vt 0.0012 0.0007 0.0000
vt 0.0009 0.0007 0.0000
vt 0.0012 0.0262 0.0000
vt 0.0009 0.0262 0.0000
vt 0.0012 0.0470 0.0000
vt 0.0009 0.0470 0.0000
vt 0.0012 0.0679 0.0000
vt 0.0009 0.0679 0.0000
vt 0.0012 0.0934 0.0000
vt 0.0009 0.0934 0.0000
vt 0.0012 0.1190 0.0000
vt 0.0009 0.1190 0.0000
vt 1.0007 0.1606 0.0000
vt 1.0007 0.1398 0.0000
vt 1.0007 0.1862 0.0000
vt 1.0007 0.0007 0.0000
vt 1.0007 0.0262 0.0000
vt 1.0007 0.0470 0.0000
vt 1.0007 0.0679 0.0000
vt 1.0007 0.0934 0.0000
vt 1.0007 0.1190 0.0000
vt 1.0006 0.1606 0.0000
vt 1.0006 0.1398 0.0000
vt 1.0006 0.1862 0.0000
vt 1.0006 0.0007 0.0000
vt 1.0006 0.0262 0.0000
vt 1.0006 0.0470 0.0000
vt 1.0006 0.0679 0.0000
vt 1.0006 0.0934 0.0000
vt 1.0006 0.1190 0.0000
vt 0.5207 0.3874 0.0000
vt 0.6306 0.3308 0.0000
vt 0.7570 0.3101 0.0000
vt 0.8599 0.3308 0.0000
vt 0.9353 0.3874 0.0000
vt 0.9629 0.4648 0.0000
vt 0.9353 0.5421 0.0000
vt 0.8599 0.5987 0.0000
vt 0.7570 0.6195 0.0000
vt 0.6306 0.5987 0.0000
vt 0.5207 0.5421 0.0000
vt 0.4898 0.5073 0.0000
vt 0.4898 0.4223 0.0000
# 242 texture coords

g StreetLight
usemtl StreetLight
s 1
f 1/2/1 2/3/2 3/4/3 
f 1/2/1 3/4/3 4/5/4 
f 1/2/1 4/5/4 5/6/5 
f 1/2/1 5/6/5 6/7/6 
f 1/2/1 6/7/6 7/8/7 
f 1/2/1 7/8/7 8/9/8 
f 1/2/1 8/9/8 9/10/9 
f 1/2/1 9/10/9 10/11/10 
f 1/2/1 10/11/10 11/15/11 
f 1/2/1 11/15/11 12/16/12 
f 2/3/2 13/17/13 14/18/14 
f 2/3/2 14/18/14 15/19/15 
f 15/19/15 3/4/3 2/3/2 
f 3/4/3 15/19/15 16/20/16 
f 16/20/16 4/5/4 3/4/3 
f 4/5/4 16/20/16 17/21/17 
f 17/21/17 5/6/5 4/5/4 
f 5/6/5 17/21/17 18/22/18 
f 18/22/18 6/7/6 5/6/5 
f 6/7/6 18/22/18 19/23/19 
f 19/23/19 7/8/7 6/7/6 
f 7/8/7 19/23/19 20/24/20 
f 20/24/20 8/9/8 7/8/7 
f 8/9/8 20/24/20 21/78/21 
f 21/78/21 9/10/9 8/9/8 
f 9/10/9 21/78/21 22/81/22 
f 22/81/22 10/11/10 9/10/9 
f 10/11/10 22/81/22 23/85/23 
f 23/85/23 11/15/11 10/11/10 
f 11/15/11 23/85/23 24/86/24 
f 24/86/24 12/16/12 11/15/11 
f 12/16/12 24/86/24 25/99/25 
f 26/114/26 27/102/27 14/27/14 
f 14/27/14 13/91/13 26/114/26 
f 27/102/27 28/103/28 15/28/15 
f 15/28/15 14/27/14 27/102/27 
f 28/103/28 29/104/29 16/29/16 
f 16/29/16 15/28/15 28/103/28 
f 29/104/29 30/105/30 17/30/17 
f 17/30/17 16/29/16 29/104/29 
f 30/105/30 31/106/31 18/31/18 
f 18/31/18 17/30/17 30/105/30 
f 31/106/31 32/107/32 19/32/19 
f 19/32/19 18/31/18 31/106/31 
f 32/107/32 33/108/33 20/33/20 
f 20/33/20 19/32/19 32/107/32 
f 33/108/33 34/109/34 21/34/21 
f 21/34/21 20/33/20 33/108/33 
f 34/109/34 35/110/35 22/35/22 
f 22/35/22 21/34/21 34/109/34 
f 35/110/35 36/111/36 23/36/23 
f 23/36/23 22/35/22 35/110/35 
f 36/111/36 37/112/37 24/37/24 
f 24/37/24 23/36/23 36/111/36 
f 37/112/37 38/113/38 25/90/25 
f 25/90/25 24/37/24 37/112/37 
f 39/242/39 40/230/40 27/40/27 
f 27/40/27 26/41/26 39/242/39 
f 40/230/40 41/231/41 28/44/28 
f 28/44/28 27/40/27 40/230/40 
f 41/231/41 42/232/42 29/46/29 
f 29/46/29 28/44/28 41/231/41 
f 43/233/43 30/48/30 29/46/29 
f 29/46/29 42/232/42 43/233/43 
f 44/234/44 31/50/31 30/48/30 
f 30/48/30 43/233/43 44/234/44 
f 45/235/45 32/52/32 31/50/31 
f 31/50/31 44/234/44 45/235/45 
f 46/236/46 33/93/33 32/52/32 
f 32/52/32 45/235/45 46/236/46 
f 47/237/47 34/115/34 33/93/33 
f 33/93/33 46/236/46 47/237/47 
f 48/238/48 35/117/35 34/115/34 
f 34/115/34 47/237/47 48/238/48 
f 49/239/49 36/119/36 35/117/35 
f 35/117/35 48/238/48 49/239/49 
f 50/240/50 37/121/37 36/119/36 
f 36/119/36 49/239/49 50/240/50 
f 51/122/51 52/42/51 53/241/52 
f 53/241/52 50/240/50 51/122/51 
s 2
f 54/54/53 55/55/54 56/39/55 
f 56/39/55 52/53/56 54/54/53 
f 55/55/54 57/57/57 58/56/58 
f 58/56/58 56/39/55 55/55/54 
f 57/57/57 59/59/59 60/58/60 
f 60/58/60 58/56/58 57/57/57 
f 59/59/59 61/61/61 62/60/62 
f 62/60/62 60/58/60 59/59/59 
f 61/61/61 63/63/63 64/62/64 
f 64/62/64 62/60/62 61/61/61 
f 63/63/63 65/66/65 66/65/66 
f 66/65/66 64/62/64 63/63/63 
f 65/66/65 67/68/67 68/67/68 
f 68/67/68 66/65/66 65/66/65 
f 67/68/67 69/70/69 70/69/70 
f 70/69/70 68/67/68 67/68/67 
f 69/70/69 71/72/71 72/71/72 
f 72/71/72 70/69/70 69/70/69 
f 71/72/71 73/74/73 74/73/74 
f 74/73/74 72/71/72 71/72/71 
f 73/74/73 75/76/75 51/75/76 
f 51/75/76 74/73/74 73/74/73 
f 75/76/75 54/54/53 52/53/56 
f 52/53/56 51/75/76 75/76/75 
f 55/55/54 54/54/53 76/77/77 
f 57/57/57 55/55/54 76/77/77 
f 59/59/59 57/57/57 76/77/77 
f 61/61/61 59/59/59 76/77/77 
f 63/63/63 61/61/61 76/77/77 
f 65/66/65 63/63/63 76/77/77 
f 67/68/67 65/66/65 76/77/77 
f 69/70/69 67/68/67 76/77/77 
f 71/72/71 69/70/69 76/77/77 
f 73/74/73 71/72/71 76/77/77 
f 75/76/75 73/74/73 76/77/77 
f 54/54/53 75/76/75 76/77/77 
s 1
f 53/241/52 39/242/39 26/41/26 
f 26/41/26 38/123/38 53/241/52 
f 1/2/1 12/16/12 2/3/2 
f 2/98/2 12/95/12 77/96/78 
f 77/96/78 78/97/78 2/98/2 
s off
f 79/89/79 80/92/79 81/87/79 
f 81/87/79 82/88/79 79/89/79 
f 13/1/80 2/12/80 78/13/80 
f 12/14/81 25/25/81 77/26/81 
f 79/80/82 82/79/82 26/38/82 
f 26/38/83 13/1/83 79/80/83 
s 1
f 80/92/84 79/89/84 78/97/78 
f 78/97/78 77/96/78 80/92/84 
s off
f 81/84/85 80/82/85 25/25/85 
f 25/25/85 38/83/85 81/84/85 
f 82/88/86 81/87/86 38/100/86 
f 38/100/86 26/101/86 82/88/86 
f 13/1/83 78/13/83 79/80/83 
f 80/82/85 77/26/85 25/25/85 
s 1
f 83/124/87 84/125/88 85/126/89 
f 85/126/89 86/127/90 83/124/87 
f 86/127/90 85/126/89 87/128/91 
f 87/128/91 88/129/92 86/127/90 
f 88/189/92 87/188/91 89/130/93 
f 89/130/93 90/131/94 88/189/92 
f 90/131/94 89/130/93 91/132/95 
f 91/132/95 92/133/96 90/131/94 
f 92/133/96 91/132/95 84/125/88 
f 84/125/88 83/124/87 92/133/96 
f 84/125/88 93/134/97 94/135/98 
f 94/135/98 85/126/89 84/125/88 
f 85/126/89 94/135/98 95/136/99 
f 95/136/99 87/128/91 85/126/89 
f 87/188/91 95/190/99 96/137/100 
f 96/137/100 89/130/93 87/188/91 
f 89/130/93 96/137/100 97/138/101 
f 97/138/101 91/132/95 89/130/93 
f 91/132/95 97/138/101 93/134/97 
f 93/134/97 84/125/88 91/132/95 
f 93/134/97 98/139/102 99/140/103 
f 99/140/103 94/135/98 93/134/97 
f 94/135/98 99/140/103 100/141/104 
f 100/141/104 95/136/99 94/135/98 
f 95/190/99 100/191/104 101/142/105 
f 101/142/105 96/137/100 95/190/99 
f 96/137/100 101/142/105 102/143/106 
f 102/143/106 97/138/101 96/137/100 
f 97/138/101 102/143/106 98/139/102 
f 98/139/102 93/134/97 97/138/101 
f 98/139/102 103/144/107 104/145/108 
f 104/145/108 99/140/103 98/139/102 
f 99/140/103 104/145/108 105/146/109 
f 105/146/109 100/141/104 99/140/103 
f 100/191/104 105/192/109 106/147/110 
f 106/147/110 101/142/105 100/191/104 
f 101/142/105 106/147/110 107/148/111 
f 107/148/111 102/143/106 101/142/105 
f 102/143/106 107/148/111 103/144/107 
f 103/144/107 98/139/102 102/143/106 
f 103/144/107 108/149/51 109/150/112 
f 109/150/112 104/145/108 103/144/107 
f 104/145/108 109/150/112 110/151/113 
f 110/151/113 105/146/109 104/145/108 
f 105/192/109 110/193/113 111/152/114 
f 111/152/114 106/147/110 105/192/109 
f 106/147/110 111/152/114 112/153/115 
f 112/153/115 107/148/111 106/147/110 
f 107/148/111 112/153/115 108/149/51 
f 108/149/51 103/144/107 107/148/111 
f 113/222/85 114/221/116 115/195/117 
f 115/195/117 116/196/118 113/222/85 
f 114/221/116 117/223/119 118/199/79 
f 118/199/79 115/195/117 114/221/116 
f 117/224/119 119/225/120 120/203/121 
f 120/203/121 118/201/79 117/224/119 
f 119/225/120 121/226/122 122/205/82 
f 122/205/82 120/203/121 119/225/120 
f 121/226/122 123/227/123 124/207/124 
f 124/207/124 122/205/82 121/226/122 
f 123/227/123 125/228/125 126/209/126 
f 126/209/126 124/207/124 123/227/123 
f 125/228/125 127/229/127 128/211/128 
f 128/211/128 126/209/126 125/228/125 
f 127/229/127 113/222/85 116/196/118 
f 116/196/118 128/211/128 127/229/127 
s 2
f 129/177/51 130/178/51 131/179/51 
f 131/179/51 132/172/51 133/173/51 
f 133/173/51 134/174/51 135/175/51 
f 131/179/51 133/173/51 135/175/51 
f 129/177/51 131/179/51 135/175/51 
f 129/177/51 135/175/51 136/176/51 
f 137/185/84 138/186/84 139/187/84 
f 139/187/84 140/180/84 141/181/84 
f 141/181/84 142/182/84 143/183/84 
f 139/187/84 141/181/84 143/183/84 
f 137/185/84 139/187/84 143/183/84 
f 137/185/84 143/183/84 144/184/84 
s 1
f 116/213/118 115/212/117 141/163/117 
f 141/163/117 140/162/118 116/213/118 
f 114/194/116 113/197/85 131/154/118 
f 131/154/118 130/155/129 114/194/116 
f 115/212/117 118/214/79 142/171/130 
f 142/171/130 141/163/117 115/212/117 
f 117/198/119 114/194/116 130/155/129 
f 130/155/129 129/170/131 117/198/119 
f 118/215/79 120/216/121 143/165/121 
f 143/165/121 142/164/130 118/215/79 
f 119/202/120 117/200/119 129/156/131 
f 129/156/131 136/157/132 119/202/120 
f 120/216/121 122/217/82 144/166/82 
f 144/166/82 143/165/121 120/216/121 
f 121/204/122 119/202/120 136/157/132 
f 136/157/132 135/158/133 121/204/122 
f 122/217/82 124/218/124 137/167/124 
f 137/167/124 144/166/82 122/217/82 
f 123/206/123 121/204/122 135/158/133 
f 135/158/133 134/159/134 123/206/123 
f 124/218/124 126/219/126 138/168/126 
f 138/168/126 137/167/124 124/218/124 
f 125/208/125 123/206/123 134/159/134 
f 134/159/134 133/160/125 125/208/125 
f 126/219/126 128/220/128 139/169/128 
f 139/169/128 138/168/126 126/219/126 
f 127/210/127 125/208/125 133/160/125 
f 133/160/125 132/161/135 127/210/127 
f 128/220/128 116/213/118 140/162/118 
f 140/162/118 139/169/128 128/220/128 
f 113/197/85 127/210/127 132/161/135 
f 132/161/135 131/154/118 113/197/85 
f 56/43/86 40/230/40 39/242/39 
f 39/242/39 52/42/51 56/43/86 
f 41/231/41 40/230/40 56/43/86 
f 56/43/86 58/45/86 41/231/41 
f 42/232/42 41/231/41 58/45/86 
f 58/45/86 60/47/86 42/232/42 
f 43/233/43 42/232/42 60/47/86 
f 60/47/86 62/49/136 43/233/43 
f 44/234/44 43/233/43 62/49/136 
f 62/49/136 64/51/136 44/234/44 
f 45/235/45 44/234/44 64/51/136 
f 64/51/136 66/64/136 45/235/45 
f 46/236/46 45/235/45 66/64/136 
f 66/64/136 68/94/77 46/236/46 
f 47/237/47 46/236/46 68/94/77 
f 68/94/77 70/116/77 47/237/47 
f 48/238/48 47/237/47 70/116/77 
f 70/116/77 72/118/51 48/238/48 
f 74/120/51 49/239/49 48/238/48 
f 48/238/48 72/118/51 74/120/51 
f 51/122/51 50/240/50 49/239/49 
f 49/239/49 74/120/51 51/122/51 
f 37/121/37 50/240/50 53/241/52 
f 53/241/52 38/123/38 37/121/37 
f 53/241/52 52/42/51 39/242/39 
# 270 faces

