# 3ds Max Wavefront OBJ Exporter v0.97b - (c)2007 guruware
# File Created: 26.01.2017 22:06:15

mtllib OverheadSign_Extension.mtl

#
# object OverheadSign_Extension
#

v  -0.0000 -5.8354 6.0841
v  -1.6300 -5.8354 6.0841
v  -1.6300 -5.8354 -6.5466
v  -0.0000 -5.8354 -6.5466
v  -1.6300 -4.3491 4.5979
v  -1.6300 -4.3491 -5.0604
v  -0.0000 -4.3491 4.5979
v  -0.0000 -4.3491 -5.0604
v  -1.6300 5.8354 -6.5466
v  0.0000 5.8354 -6.5466
v  -1.6300 4.3491 -5.0604
v  0.0000 4.3491 -5.0604
v  -1.6300 5.8354 6.0841
v  0.0000 5.8354 6.0841
v  -1.6300 4.3491 4.5979
v  0.0000 4.3491 4.5979
v  -13.4709 -5.5945 5.0825
v  -13.4709 -4.7745 5.0825
v  -2.4359 -4.7745 -5.9525
v  -2.4359 -5.5945 -5.9525
v  -12.7031 -5.5945 5.8503
v  -1.6681 -5.5945 -5.1847
v  -12.7031 -4.7745 5.8503
v  -1.6681 -4.7745 -5.1847
v  -13.4709 4.7716 5.0825
v  -13.4709 5.5916 5.0825
v  -2.4359 5.5916 -5.9525
v  -2.4359 4.7716 -5.9525
v  -12.7031 4.7716 5.8503
v  -1.6681 4.7716 -5.1847
v  -12.7031 5.5916 5.8503
v  -1.6681 5.5916 -5.1847
v  -2.2456 4.8566 5.3673
v  -2.2456 5.5066 5.3673
v  -12.9657 5.5066 -5.3528
v  -12.9657 4.8566 -5.3528
v  -1.6370 4.8566 4.7586
v  -12.3570 4.8566 -5.9614
v  -1.6370 5.5066 4.7586
v  -12.3570 5.5066 -5.9614
v  -2.2456 -5.5095 5.3673
v  -2.2456 -4.8594 5.3673
v  -12.9657 -4.8594 -5.3528
v  -12.9657 -5.5095 -5.3528
v  -1.6370 -5.5095 4.7586
v  -12.3570 -5.5095 -5.9614
v  -1.6370 -4.8594 4.7586
v  -12.3570 -4.8594 -5.9614
v  -13.1491 5.6896 -6.4386
v  -13.1491 4.4196 -6.4386
v  -13.1491 4.4196 -5.1686
v  -13.1491 5.6896 -5.1686
v  -0.4491 5.6896 -6.4386
v  -0.4491 5.6896 -5.1686
v  -0.4491 4.4196 -5.1686
v  -0.4491 4.4196 -6.4386
v  -13.1491 -4.4450 -6.4386
v  -13.1491 -5.7150 -6.4386
v  -13.1491 -5.7150 -5.1686
v  -13.1491 -4.4450 -5.1686
v  -0.4491 -4.4450 -6.4386
v  -0.4491 -4.4450 -5.1686
v  -0.4491 -5.7150 -5.1686
v  -0.4491 -5.7150 -6.4386
v  -13.1491 -4.4450 4.7486
v  -13.1491 -5.7150 4.7486
v  -13.1491 -5.7150 6.0186
v  -13.1491 -4.4450 6.0186
v  -0.4491 -4.4450 4.7486
v  -0.4491 -4.4450 6.0186
v  -0.4491 -5.7150 6.0186
v  -0.4491 -5.7150 4.7486
v  -13.1491 5.6896 4.7486
v  -13.1491 4.4196 4.7486
v  -13.1491 4.4196 6.0186
v  -13.1491 5.6896 6.0186
v  -0.4491 5.6896 4.7486
v  -0.4491 5.6896 6.0186
v  -0.4491 4.4196 6.0186
v  -0.4491 4.4196 4.7486
v  -12.7254 -5.8354 6.0841
v  -14.3554 -5.8354 6.0841
v  -14.3554 -5.8354 -6.5466
v  -12.7254 -5.8354 -6.5466
v  -14.3554 -4.3491 4.5979
v  -14.3554 -4.3491 -5.0604
v  -12.7254 -4.3491 4.5979
v  -12.7254 -4.3491 -5.0604
v  -14.3554 5.8354 -6.5466
v  -12.7254 5.8354 -6.5466
v  -14.3554 4.3491 -5.0604
v  -12.7254 4.3491 -5.0604
v  -14.3554 5.8354 6.0841
v  -12.7254 5.8354 6.0841
v  -14.3554 4.3491 4.5979
v  -12.7254 4.3491 4.5979
v  -26.2077 -5.5945 5.0825
v  -26.2077 -4.7745 5.0825
v  -15.1727 -4.7745 -5.9525
v  -15.1727 -5.5945 -5.9525
v  -25.4400 -5.5945 5.8503
v  -14.4050 -5.5945 -5.1847
v  -25.4400 -4.7745 5.8503
v  -14.4050 -4.7745 -5.1847
v  -25.8859 -4.4450 -6.4386
v  -25.8859 -5.7150 -6.4386
v  -25.8859 -5.7150 -5.1686
v  -25.8859 -4.4450 -5.1686
v  -13.1859 -4.4450 -6.4386
v  -13.1859 -4.4450 -5.1686
v  -13.1859 -5.7150 -5.1686
v  -13.1859 -5.7150 -6.4386
v  -25.8859 5.6896 -6.4386
v  -25.8859 4.4196 -6.4386
v  -25.8859 4.4196 -5.1686
v  -25.8859 5.6896 -5.1686
v  -13.1859 5.6896 -6.4386
v  -13.1859 5.6896 -5.1686
v  -13.1859 4.4196 -5.1686
v  -13.1859 4.4196 -6.4386
v  -26.2077 4.7716 5.0825
v  -26.2077 5.5916 5.0825
v  -15.1727 5.5916 -5.9525
v  -15.1727 4.7716 -5.9525
v  -25.4400 4.7716 5.8503
v  -14.4050 4.7716 -5.1847
v  -25.4400 5.5916 5.8503
v  -14.4050 5.5916 -5.1847
v  -14.9825 -5.5095 5.3673
v  -14.9825 -4.8594 5.3673
v  -25.7025 -4.8594 -5.3528
v  -25.7025 -5.5095 -5.3528
v  -14.3738 -5.5095 4.7586
v  -25.0939 -5.5095 -5.9614
v  -14.3738 -4.8594 4.7586
v  -25.0939 -4.8594 -5.9614
v  -14.9825 4.8566 5.3673
v  -14.9825 5.5066 5.3673
v  -25.7025 5.5066 -5.3528
v  -25.7025 4.8566 -5.3528
v  -14.3738 4.8566 4.7586
v  -25.0939 4.8566 -5.9614
v  -14.3738 5.5066 4.7586
v  -25.0939 5.5066 -5.9614
v  -25.8859 -4.4450 4.7486
v  -25.8859 -5.7150 4.7486
v  -25.8859 -5.7150 6.0186
v  -25.8859 -4.4450 6.0186
v  -13.1859 -4.4450 4.7486
v  -13.1859 -4.4450 6.0186
v  -13.1859 -5.7150 6.0186
v  -13.1859 -5.7150 4.7486
v  -25.8859 5.6896 4.7486
v  -25.8859 4.4196 4.7486
v  -25.8859 4.4196 6.0186
v  -25.8859 5.6896 6.0186
v  -13.1859 5.6896 4.7486
v  -13.1859 5.6896 6.0186
v  -13.1859 4.4196 6.0186
v  -13.1859 4.4196 4.7486
# 160 vertices

vn -0.0000 -1.0000 0.0000
vn -1.0000 0.0000 -0.0000
vn 0.0000 1.0000 -0.0000
vn 1.0000 -0.0000 0.0000
vn 0.0000 0.0000 -1.0000
vn -0.0000 -0.0000 -1.0000
vn 0.0000 0.0000 1.0000
vn -0.0000 0.0000 1.0000
vn -0.5478 0.0000 -0.8366
vn -0.5478 -0.0000 -0.8366
vn 0.0000 -1.0000 0.0000
vn 0.5478 -0.0000 0.8366
vn 0.5478 0.0000 0.8366
vn -0.0000 1.0000 -0.0000
vn -0.5478 -0.0000 0.8366
vn -0.5478 0.0000 0.8366
vn 0.0000 -1.0000 -0.0000
vn 0.5478 0.0000 -0.8366
vn 0.5478 -0.0000 -0.8366
vn -0.0000 1.0000 0.0000
vn -0.0000 -1.0000 -0.0000
vn 0.0000 1.0000 0.0000
vn -0.0000 0.0000 -1.0000
vn 0.0000 -0.0000 1.0000
# 24 vertex normals

vt 0.0000 0.0000 0.0000
vt 0.2500 0.0000 0.0000
vt 0.5000 0.0000 0.0000
vt 0.7500 0.0000 0.0000
vt 1.0000 0.0000 0.0000
vt 0.0000 0.2500 0.0000
vt 0.2500 0.2500 0.0000
vt 0.5000 0.2500 0.0000
vt 0.7500 0.2500 0.0000
vt 1.0000 0.2500 0.0000
vt 0.0000 0.5000 0.0000
vt 0.2500 0.5000 0.0000
vt 0.5000 0.5000 0.0000
vt 0.7500 0.5000 0.0000
vt 1.0000 0.5000 0.0000
vt 0.0000 0.7500 0.0000
vt 0.2500 0.7500 0.0000
vt 0.5000 0.7500 0.0000
vt 0.7500 0.7500 0.0000
vt 1.0000 0.7500 0.0000
vt 0.0000 1.0000 0.0000
vt 0.2500 1.0000 0.0000
vt 0.5000 1.0000 0.0000
vt 0.7500 1.0000 0.0000
vt 1.0000 1.0000 0.0000
vt 0.5000 0.0000 0.0000
vt 1.0000 0.0000 0.0000
vt 0.5000 1.0000 0.0000
vt 1.0000 1.0000 0.0000
vt 0.0000 0.0000 0.0000
vt 0.5000 0.0000 0.0000
vt 0.0000 1.0000 0.0000
vt 0.5000 1.0000 0.0000
vt 0.5000 0.0000 0.0000
vt 1.0000 0.0000 0.0000
vt 0.5000 1.0000 0.0000
vt 1.0000 1.0000 0.0000
vt 0.0000 0.0000 0.0000
vt 0.5000 0.0000 0.0000
vt 0.0000 1.0000 0.0000
vt 0.5000 1.0000 0.0000
vt 0.5000 0.0000 0.0000
vt 1.0000 0.0000 0.0000
vt 0.5000 1.0000 0.0000
vt 1.0000 1.0000 0.0000
vt 0.0000 0.0000 0.0000
vt 0.5000 0.0000 0.0000
vt 0.0000 1.0000 0.0000
vt 0.5000 1.0000 0.0000
vt 0.5000 0.0000 0.0000
vt 1.0000 0.0000 0.0000
vt 0.5000 1.0000 0.0000
vt 1.0000 1.0000 0.0000
vt 0.0000 0.0000 0.0000
vt 0.5000 0.0000 0.0000
vt 0.0000 1.0000 0.0000
vt 0.5000 1.0000 0.0000
vt 0.5000 0.0000 0.0000
vt 1.0000 0.0000 0.0000
vt 0.5000 1.0000 0.0000
vt 1.0000 1.0000 0.0000
vt 0.0000 0.0000 0.0000
vt 0.5000 0.0000 0.0000
vt 0.0000 1.0000 0.0000
vt 0.5000 1.0000 0.0000
vt 0.5000 0.0000 0.0000
vt 1.0000 0.0000 0.0000
vt 0.5000 1.0000 0.0000
vt 1.0000 1.0000 0.0000
vt 0.4990 0.4995 0.0000
vt 0.4995 0.4995 0.0000
vt 0.4995 0.5000 0.0000
vt 0.4990 0.5000 0.0000
vt 0.5000 0.0000 0.0000
vt 1.0000 0.0000 0.0000
vt 0.5000 1.0000 0.0000
vt 1.0000 1.0000 0.0000
vt 0.0000 0.0000 0.0000
vt 0.5000 0.0000 0.0000
vt 0.0000 1.0000 0.0000
vt 0.5000 1.0000 0.0000
vt 0.5000 0.0000 0.0000
vt 1.0000 0.0000 0.0000
vt 0.5000 1.0000 0.0000
vt 1.0000 1.0000 0.0000
vt 0.4990 0.4995 0.0000
vt 0.4995 0.4995 0.0000
vt 0.4995 0.5000 0.0000
vt 0.4990 0.5000 0.0000
vt 0.5000 0.0000 0.0000
vt 1.0000 0.0000 0.0000
vt 0.5000 1.0000 0.0000
vt 1.0000 1.0000 0.0000
vt 0.0000 0.0000 0.0000
vt 0.5000 0.0000 0.0000
vt 0.0000 1.0000 0.0000
vt 0.5000 1.0000 0.0000
vt 0.5000 0.0000 0.0000
vt 1.0000 0.0000 0.0000
vt 0.5000 1.0000 0.0000
vt 1.0000 1.0000 0.0000
vt 0.4990 0.4995 0.0000
vt 0.4995 0.4995 0.0000
vt 0.4995 0.5000 0.0000
vt 0.4990 0.5000 0.0000
vt 0.5000 0.0000 0.0000
vt 1.0000 0.0000 0.0000
vt 0.5000 1.0000 0.0000
vt 1.0000 1.0000 0.0000
vt 0.0000 0.0000 0.0000
vt 0.5000 0.0000 0.0000
vt 0.0000 1.0000 0.0000
vt 0.5000 1.0000 0.0000
vt 0.5000 0.0000 0.0000
vt 1.0000 0.0000 0.0000
vt 0.5000 1.0000 0.0000
vt 1.0000 1.0000 0.0000
vt 0.4990 0.4995 0.0000
vt 0.4995 0.4995 0.0000
vt 0.4995 0.5000 0.0000
vt 0.4990 0.5000 0.0000
vt 0.0000 0.0000 0.0000
vt 0.2500 0.0000 0.0000
vt 0.5000 0.0000 0.0000
vt 0.7500 0.0000 0.0000
vt 1.0000 0.0000 0.0000
vt 0.0000 0.2500 0.0000
vt 0.2500 0.2500 0.0000
vt 0.5000 0.2500 0.0000
vt 0.7500 0.2500 0.0000
vt 1.0000 0.2500 0.0000
vt 0.0000 0.5000 0.0000
vt 0.2500 0.5000 0.0000
vt 0.5000 0.5000 0.0000
vt 0.7500 0.5000 0.0000
vt 1.0000 0.5000 0.0000
vt 0.0000 0.7500 0.0000
vt 0.2500 0.7500 0.0000
vt 0.5000 0.7500 0.0000
vt 0.7500 0.7500 0.0000
vt 1.0000 0.7500 0.0000
vt 0.0000 1.0000 0.0000
vt 0.2500 1.0000 0.0000
vt 0.5000 1.0000 0.0000
vt 0.7500 1.0000 0.0000
vt 1.0000 1.0000 0.0000
vt 0.5000 0.0000 0.0000
vt 1.0000 0.0000 0.0000
vt 0.5000 1.0000 0.0000
vt 1.0000 1.0000 0.0000
vt 0.0000 0.0000 0.0000
vt 0.5000 0.0000 0.0000
vt 0.0000 1.0000 0.0000
vt 0.5000 1.0000 0.0000
vt 0.5000 0.0000 0.0000
vt 1.0000 0.0000 0.0000
vt 0.5000 1.0000 0.0000
vt 1.0000 1.0000 0.0000
vt 0.0000 0.0000 0.0000
vt 0.5000 0.0000 0.0000
vt 0.0000 1.0000 0.0000
vt 0.5000 1.0000 0.0000
vt 0.5000 0.0000 0.0000
vt 1.0000 0.0000 0.0000
vt 0.5000 1.0000 0.0000
vt 1.0000 1.0000 0.0000
vt 0.4990 0.4995 0.0000
vt 0.4995 0.4995 0.0000
vt 0.4995 0.5000 0.0000
vt 0.4990 0.5000 0.0000
vt 0.5000 0.0000 0.0000
vt 1.0000 0.0000 0.0000
vt 0.5000 1.0000 0.0000
vt 1.0000 1.0000 0.0000
vt 0.0000 0.0000 0.0000
vt 0.5000 0.0000 0.0000
vt 0.0000 1.0000 0.0000
vt 0.5000 1.0000 0.0000
vt 0.5000 0.0000 0.0000
vt 1.0000 0.0000 0.0000
vt 0.5000 1.0000 0.0000
vt 1.0000 1.0000 0.0000
vt 0.4990 0.4995 0.0000
vt 0.4995 0.4995 0.0000
vt 0.4995 0.5000 0.0000
vt 0.4990 0.5000 0.0000
vt 0.5000 0.0000 0.0000
vt 1.0000 0.0000 0.0000
vt 0.5000 1.0000 0.0000
vt 1.0000 1.0000 0.0000
vt 0.0000 0.0000 0.0000
vt 0.5000 0.0000 0.0000
vt 0.0000 1.0000 0.0000
vt 0.5000 1.0000 0.0000
vt 0.5000 0.0000 0.0000
vt 1.0000 0.0000 0.0000
vt 0.5000 1.0000 0.0000
vt 1.0000 1.0000 0.0000
vt 0.0000 0.0000 0.0000
vt 0.5000 0.0000 0.0000
vt 0.0000 1.0000 0.0000
vt 0.5000 1.0000 0.0000
vt 0.5000 0.0000 0.0000
vt 1.0000 0.0000 0.0000
vt 0.5000 1.0000 0.0000
vt 1.0000 1.0000 0.0000
vt 0.0000 0.0000 0.0000
vt 0.5000 0.0000 0.0000
vt 0.0000 1.0000 0.0000
vt 0.5000 1.0000 0.0000
vt 0.5000 0.0000 0.0000
vt 1.0000 0.0000 0.0000
vt 0.5000 1.0000 0.0000
vt 1.0000 1.0000 0.0000
vt 0.0000 0.0000 0.0000
vt 0.5000 0.0000 0.0000
vt 0.0000 1.0000 0.0000
vt 0.5000 1.0000 0.0000
vt 0.5000 0.0000 0.0000
vt 1.0000 0.0000 0.0000
vt 0.5000 1.0000 0.0000
vt 1.0000 1.0000 0.0000
vt 0.4990 0.4995 0.0000
vt 0.4995 0.4995 0.0000
vt 0.4995 0.5000 0.0000
vt 0.4990 0.5000 0.0000
vt 0.5000 0.0000 0.0000
vt 1.0000 0.0000 0.0000
vt 0.5000 1.0000 0.0000
vt 1.0000 1.0000 0.0000
vt 0.0000 0.0000 0.0000
vt 0.5000 0.0000 0.0000
vt 0.0000 1.0000 0.0000
vt 0.5000 1.0000 0.0000
vt 0.5000 0.0000 0.0000
vt 1.0000 0.0000 0.0000
vt 0.5000 1.0000 0.0000
vt 1.0000 1.0000 0.0000
vt 0.4990 0.4995 0.0000
vt 0.4995 0.4995 0.0000
vt 0.4995 0.5000 0.0000
vt 0.4990 0.5000 0.0000
# 242 texture coords

g OverheadSign_Extension
usemtl OverheadSign_Base
s off
f 1/1/1 2/2/1 3/7/1 
f 3/7/1 4/6/1 1/1/1 
f 2/2/2 5/3/2 6/8/2 
f 6/8/2 3/7/2 2/2/2 
f 5/3/3 7/4/3 8/9/3 
f 8/9/3 6/8/3 5/3/3 
f 7/4/4 1/5/4 4/10/4 
f 4/10/4 8/9/4 7/4/4 
f 4/6/5 3/7/5 9/12/5 
f 9/12/6 10/11/6 4/6/6 
f 3/7/2 6/8/2 11/13/2 
f 11/13/2 9/12/2 3/7/2 
f 6/8/7 8/9/7 12/14/7 
f 12/14/7 11/13/7 6/8/7 
f 8/9/4 4/10/4 10/15/4 
f 10/15/4 12/14/4 8/9/4 
f 10/11/3 9/12/3 13/17/3 
f 13/17/3 14/16/3 10/11/3 
f 9/12/2 11/13/2 15/18/2 
f 15/18/2 13/17/2 9/12/2 
f 11/13/1 12/14/1 16/19/1 
f 16/19/1 15/18/1 11/13/1 
f 12/14/4 10/15/4 14/20/4 
f 14/20/4 16/19/4 12/14/4 
f 14/16/8 13/17/8 2/22/8 
f 2/22/7 1/21/7 14/16/7 
f 13/17/2 15/18/2 5/23/2 
f 5/23/2 2/22/2 13/17/2 
f 15/18/5 16/19/5 7/24/5 
f 7/24/6 5/23/6 15/18/6 
f 16/19/4 14/20/4 1/25/4 
f 1/25/4 7/24/4 16/19/4 
f 17/33/9 18/32/9 19/30/9 
f 19/30/10 20/31/10 17/33/10 
f 21/29/11 17/28/11 20/26/11 
f 20/26/1 22/27/1 21/29/1 
f 23/33/12 21/32/12 22/30/12 
f 22/30/13 24/31/13 23/33/13 
f 18/29/14 23/28/14 24/26/14 
f 24/26/14 19/27/14 18/29/14 
f 25/41/9 26/40/9 27/38/9 
f 27/38/9 28/39/9 25/41/9 
f 29/37/11 25/36/11 28/34/11 
f 28/34/1 30/35/1 29/37/1 
f 31/41/12 29/40/12 30/38/12 
f 30/38/12 32/39/12 31/41/12 
f 26/37/14 31/36/14 32/34/14 
f 32/34/3 27/35/3 26/37/3 
f 33/49/15 34/48/15 35/46/15 
f 35/46/16 36/47/16 33/49/16 
f 37/45/17 33/44/17 36/42/17 
f 36/42/17 38/43/17 37/45/17 
f 39/49/18 37/48/18 38/46/18 
f 38/46/19 40/47/19 39/49/19 
f 34/45/20 39/44/20 40/42/20 
f 40/42/20 35/43/20 34/45/20 
f 41/57/15 42/56/15 43/54/15 
f 43/54/15 44/55/15 41/57/15 
f 45/53/17 41/52/17 44/50/17 
f 44/50/21 46/51/21 45/53/21 
f 47/57/18 45/56/18 46/54/18 
f 46/54/18 48/55/18 47/57/18 
f 42/53/20 47/52/20 48/50/20 
f 48/50/22 43/51/22 42/53/22 
f 49/68/2 50/66/2 51/67/2 
f 51/67/2 52/69/2 49/68/2 
f 53/72/4 54/73/4 55/70/4 
f 55/70/4 56/71/4 53/72/4 
f 56/65/21 55/64/21 51/62/21 
f 51/62/1 50/63/1 56/65/1 
f 53/61/23 56/60/23 50/58/23 
f 50/58/23 49/59/23 53/61/23 
f 54/65/3 53/64/3 49/62/3 
f 49/62/3 52/63/3 54/65/3 
f 55/61/7 54/60/7 52/58/7 
f 52/58/24 51/59/24 55/61/24 
f 57/84/2 58/82/2 59/83/2 
f 59/83/2 60/85/2 57/84/2 
f 61/88/4 62/89/4 63/86/4 
f 63/86/4 64/87/4 61/88/4 
f 64/81/21 63/80/21 59/78/21 
f 59/78/1 58/79/1 64/81/1 
f 61/77/23 64/76/23 58/74/23 
f 58/74/6 57/75/6 61/77/6 
f 62/81/3 61/80/3 57/78/3 
f 57/78/3 60/79/3 62/81/3 
f 63/77/24 62/76/24 60/74/24 
f 60/74/7 59/75/7 63/77/7 
f 65/100/2 66/98/2 67/99/2 
f 67/99/2 68/101/2 65/100/2 
f 69/104/4 70/105/4 71/102/4 
f 71/102/4 72/103/4 69/104/4 
f 72/97/21 71/96/21 67/94/21 
f 67/94/1 66/95/1 72/97/1 
f 69/93/23 72/92/23 66/90/23 
f 66/90/23 65/91/23 69/93/23 
f 70/97/3 69/96/3 65/94/3 
f 65/94/3 68/95/3 70/97/3 
f 71/93/7 70/92/7 68/90/7 
f 68/90/24 67/91/24 71/93/24 
f 73/116/2 74/114/2 75/115/2 
f 75/115/2 76/117/2 73/116/2 
f 77/120/4 78/121/4 79/118/4 
f 79/118/4 80/119/4 77/120/4 
f 80/113/21 79/112/21 75/110/21 
f 75/110/1 74/111/1 80/113/1 
f 77/109/23 80/108/23 74/106/23 
f 74/106/6 73/107/6 77/109/6 
f 78/113/22 77/112/22 73/110/22 
f 73/110/3 76/111/3 78/113/3 
f 79/109/7 78/108/7 76/106/7 
f 76/106/7 75/107/7 79/109/7 
f 81/122/1 82/123/1 83/128/1 
f 83/128/1 84/127/1 81/122/1 
f 82/123/2 85/124/2 86/129/2 
f 86/129/2 83/128/2 82/123/2 
f 85/124/3 87/125/3 88/130/3 
f 88/130/3 86/129/3 85/124/3 
f 87/125/4 81/126/4 84/131/4 
f 84/131/4 88/130/4 87/125/4 
f 84/127/5 83/128/5 89/133/5 
f 89/133/6 90/132/6 84/127/6 
f 83/128/2 86/129/2 91/134/2 
f 91/134/2 89/133/2 83/128/2 
f 86/129/7 88/130/7 92/135/7 
f 92/135/7 91/134/7 86/129/7 
f 88/130/4 84/131/4 90/136/4 
f 90/136/4 92/135/4 88/130/4 
f 90/132/3 89/133/3 93/138/3 
f 93/138/3 94/137/3 90/132/3 
f 89/133/2 91/134/2 95/139/2 
f 95/139/2 93/138/2 89/133/2 
f 91/134/1 92/135/1 96/140/1 
f 96/140/1 95/139/1 91/134/1 
f 92/135/4 90/136/4 94/141/4 
f 94/141/4 96/140/4 92/135/4 
f 94/137/8 93/138/8 82/143/8 
f 82/143/7 81/142/7 94/137/7 
f 93/138/2 95/139/2 85/144/2 
f 85/144/2 82/143/2 93/138/2 
f 95/139/5 96/140/5 87/145/5 
f 87/145/6 85/144/6 95/139/6 
f 96/140/4 94/141/4 81/146/4 
f 81/146/4 87/145/4 96/140/4 
f 97/154/9 98/153/9 99/151/9 
f 99/151/10 100/152/10 97/154/10 
f 101/150/11 97/149/11 100/147/11 
f 100/147/21 102/148/21 101/150/21 
f 103/154/12 101/153/12 102/151/12 
f 102/151/12 104/152/12 103/154/12 
f 98/150/14 103/149/14 104/147/14 
f 104/147/14 99/148/14 98/150/14 
f 105/165/2 106/163/2 107/164/2 
f 107/164/2 108/166/2 105/165/2 
f 109/169/4 110/170/4 111/167/4 
f 111/167/4 112/168/4 109/169/4 
f 112/162/21 111/161/21 107/159/21 
f 107/159/1 106/160/1 112/162/1 
f 109/158/23 112/157/23 106/155/23 
f 106/155/6 105/156/6 109/158/6 
f 110/162/3 109/161/3 105/159/3 
f 105/159/3 108/160/3 110/162/3 
f 111/158/24 110/157/24 108/155/24 
f 108/155/7 107/156/7 111/158/7 
f 113/181/2 114/179/2 115/180/2 
f 115/180/2 116/182/2 113/181/2 
f 117/185/4 118/186/4 119/183/4 
f 119/183/4 120/184/4 117/185/4 
f 120/178/21 119/177/21 115/175/21 
f 115/175/1 114/176/1 120/178/1 
f 117/174/23 120/173/23 114/171/23 
f 114/171/23 113/172/23 117/174/23 
f 118/178/3 117/177/3 113/175/3 
f 113/175/3 116/176/3 118/178/3 
f 119/174/7 118/173/7 116/171/7 
f 116/171/24 115/172/24 119/174/24 
f 121/194/9 122/193/9 123/191/9 
f 123/191/9 124/192/9 121/194/9 
f 125/190/11 121/189/11 124/187/11 
f 124/187/1 126/188/1 125/190/1 
f 127/194/12 125/193/12 126/191/12 
f 126/191/12 128/192/12 127/194/12 
f 122/190/14 127/189/14 128/187/14 
f 128/187/3 123/188/3 122/190/3 
f 129/202/15 130/201/15 131/199/15 
f 131/199/15 132/200/15 129/202/15 
f 133/198/17 129/197/17 132/195/17 
f 132/195/21 134/196/21 133/198/21 
f 135/202/18 133/201/18 134/199/18 
f 134/199/18 136/200/18 135/202/18 
f 130/198/20 135/197/20 136/195/20 
f 136/195/22 131/196/22 130/198/22 
f 137/210/15 138/209/15 139/207/15 
f 139/207/16 140/208/16 137/210/16 
f 141/206/17 137/205/17 140/203/17 
f 140/203/17 142/204/17 141/206/17 
f 143/210/18 141/209/18 142/207/18 
f 142/207/19 144/208/19 143/210/19 
f 138/206/20 143/205/20 144/203/20 
f 144/203/20 139/204/20 138/206/20 
f 145/221/2 146/219/2 147/220/2 
f 147/220/2 148/222/2 145/221/2 
f 149/225/4 150/226/4 151/223/4 
f 151/223/4 152/224/4 149/225/4 
f 152/218/21 151/217/21 147/215/21 
f 147/215/1 146/216/1 152/218/1 
f 149/214/23 152/213/23 146/211/23 
f 146/211/23 145/212/23 149/214/23 
f 150/218/3 149/217/3 145/215/3 
f 145/215/3 148/216/3 150/218/3 
f 151/214/7 150/213/7 148/211/7 
f 148/211/24 147/212/24 151/214/24 
f 153/237/2 154/235/2 155/236/2 
f 155/236/2 156/238/2 153/237/2 
f 157/241/4 158/242/4 159/239/4 
f 159/239/4 160/240/4 157/241/4 
f 160/234/21 159/233/21 155/231/21 
f 155/231/1 154/232/1 160/234/1 
f 157/230/23 160/229/23 154/227/23 
f 154/227/6 153/228/6 157/230/6 
f 158/234/22 157/233/22 153/231/22 
f 153/231/3 156/232/3 158/234/3 
f 159/230/7 158/229/7 156/227/7 
f 156/227/7 155/228/7 159/230/7 
# 224 faces

