# 3ds Max Wavefront OBJ Exporter v0.97b - (c)2007 guruware
# File Created: 26.01.2017 22:03:22

mtllib GuardRail.mtl

#
# object GuardRail
#

v  -0.4753 -0.4753 6.4686
v  0.4753 -0.4753 6.4686
v  0.4753 0.4753 6.4686
v  -0.4753 0.4753 6.4686
v  -0.4753 -0.4753 0.0000
v  0.4753 -0.4753 0.0000
v  0.4753 0.4753 0.0000
v  -0.4753 0.4753 0.0000
v  -1.2053 1.2053 0.0000
v  -1.2053 -1.2053 0.0000
v  1.2053 1.2053 0.0000
v  1.2053 -1.2053 0.0000
v  -0.0000 0.3985 6.3246
v  -10.1600 0.3985 6.3246
v  -10.1600 -0.3296 5.9663
v  -0.0000 -0.3296 5.9663
v  -10.1600 -0.3296 4.3302
v  -10.1600 0.3985 3.9719
v  -0.0000 0.3985 3.9719
v  -0.0000 -0.3296 4.3302
v  -10.1600 0.1008 5.4500
v  -0.0000 0.1008 5.4500
v  -0.0000 0.1008 4.8465
v  -10.1600 0.1008 4.8465
# 24 vertices

vn 0.0000 0.0000 1.0000
vn 0.0000 -1.0000 0.0000
vn 1.0000 0.0000 0.0000
vn 0.0000 1.0000 0.0000
vn -1.0000 0.0000 0.0000
vn -0.0000 -0.4415 0.8972
vn -0.0000 -0.9782 0.2078
vn 0.0000 -0.9782 -0.2078
vn 0.0000 -0.4415 -0.8972
vn 0.0000 -0.7682 -0.6403
vn -0.0000 -0.7682 0.6403
# 11 vertex normals

vt 0.6721 0.6315 0.0000
vt 0.7652 0.6315 0.0000
vt 0.7652 0.7245 0.0000
vt 0.6721 0.7245 0.0000
vt 0.7436 0.5230 0.0000
vt 0.8366 0.5230 0.0000
vt 0.0020 0.6377 0.0000
vt 0.0020 0.5446 0.0000
vt 0.9081 0.5945 0.0000
vt 0.6721 0.5945 0.0000
vt 0.6351 0.5446 0.0000
vt 0.6351 0.6377 0.0000
vt 0.8366 0.4300 0.0000
vt 0.9081 0.3585 0.0000
vt 0.0020 0.4516 0.0000
vt 0.6351 0.4516 0.0000
vt 0.7436 0.4300 0.0000
vt 0.6721 0.3585 0.0000
vt 0.0020 0.3585 0.0000
vt 0.6351 0.3585 0.0000
vt 0.9964 0.2514 0.0000
vt 0.9964 0.3308 0.0000
vt 0.0020 0.3308 0.0000
vt 0.0020 0.2514 0.0000
vt 0.9964 0.0814 0.0000
vt 0.0020 0.0814 0.0000
vt 0.0020 0.7677 0.0000
vt 0.9964 0.7677 0.0000
vt 0.0020 0.0020 0.0000
vt 0.9964 0.9980 0.0000
vt 0.9964 0.0020 0.0000
vt 0.0020 0.1351 0.0000
vt 0.9964 0.1977 0.0000
vt 0.0020 0.9980 0.0000
vt 0.0020 0.7307 0.0000
vt 0.6351 0.7307 0.0000
vt 0.9964 0.1351 0.0000
vt 0.0020 0.1977 0.0000
# 38 texture coords

g GuardRail
usemtl GuardRail
s 4
f 1/1/1 2/2/1 3/3/1 
f 3/3/1 4/4/1 1/1/1 
s 8
f 5/7/2 6/8/2 2/11/2 
f 2/11/2 1/12/2 5/7/2 
s 16
f 6/8/3 7/15/3 3/16/3 
f 3/16/3 2/11/3 6/8/3 
s 32
f 7/15/4 8/19/4 4/20/4 
f 4/20/4 3/16/4 7/15/4 
s 64
f 8/35/5 5/7/5 1/12/5 
f 1/12/5 4/36/5 8/35/5 
s off
f 5/5/1 8/6/1 9/9/1 
f 9/9/1 10/10/1 5/5/1 
f 8/6/1 7/13/1 11/14/1 
f 11/14/1 9/9/1 8/6/1 
f 7/13/1 6/17/1 12/18/1 
f 12/18/1 11/14/1 7/13/1 
f 6/17/1 5/5/1 10/10/1 
f 10/10/1 12/18/1 6/17/1 
s 1
f 13/22/6 14/23/6 15/24/7 
f 15/24/7 16/21/7 13/22/6 
f 17/26/8 18/29/9 19/31/9 
f 19/31/9 20/25/8 17/26/8 
f 15/24/7 21/38/10 22/33/10 
f 22/33/10 16/21/7 15/24/7 
s off
f 13/28/4 19/30/4 18/34/4 
f 18/34/4 14/27/4 13/28/4 
s 1
f 17/26/8 20/25/8 23/37/11 
f 23/37/11 24/32/11 17/26/8 
s off
f 21/38/2 24/32/2 23/37/2 
f 23/37/2 22/33/2 21/38/2 
# 30 faces

