# 3ds Max Wavefront OBJ Exporter v0.97b - (c)2007 guruware
# File Created: 26.01.2017 22:06:53

mtllib OverheadSign_01.mtl

#
# object OverheadSign_01
#

v  -12.5038 0.0000 -5.8230
v  -12.1603 0.0000 -6.1665
v  -11.7173 0.0000 -6.3500
v  11.7173 0.0000 -6.3500
v  12.1603 0.0000 -6.1665
v  12.5038 0.0000 -5.8230
v  12.6873 0.0000 -5.3800
v  12.6873 -0.0000 5.3800
v  12.5038 -0.0000 5.8230
v  12.1603 -0.0000 6.1665
v  11.7173 -0.0000 6.3500
v  -11.7173 -0.0000 6.3500
v  -12.1603 -0.0000 6.1665
v  -12.5038 -0.0000 5.8230
v  -12.6873 -0.0000 5.3800
v  -12.6873 0.0000 -5.3800
# 16 vertices

vn 0.0000 -1.0000 -0.0000
# 1 vertex normals

vt 0.0000 0.5382 0.0000
vt 0.9618 0.5000 0.0000
vt 0.0382 1.0000 0.0000
vt 1.0000 0.9618 0.0000
vt 0.0208 0.5072 0.0000
vt 0.9928 0.5207 0.0000
vt 0.0072 0.9793 0.0000
vt 0.9792 0.9928 0.0000
vt 0.0072 0.5207 0.0000
vt 0.9792 0.5072 0.0000
vt 0.0208 0.9928 0.0000
vt 0.9928 0.9793 0.0000
vt 0.0382 0.5000 0.0000
vt 1.0000 0.5382 0.0000
vt 0.0000 0.9618 0.0000
vt 0.9618 1.0000 0.0000
# 16 texture coords

g OverheadSign_01
usemtl Overhead_Signs
s off
f 1/9/1 2/5/1 3/13/1 
f 3/13/1 4/2/1 5/10/1 
f 5/10/1 6/6/1 7/14/1 
f 3/13/1 5/10/1 7/14/1 
f 7/14/1 8/4/1 9/12/1 
f 9/12/1 10/8/1 11/16/1 
f 7/14/1 9/12/1 11/16/1 
f 11/16/1 12/3/1 13/11/1 
f 13/11/1 14/7/1 15/15/1 
f 11/16/1 13/11/1 15/15/1 
f 7/14/1 11/16/1 15/15/1 
f 3/13/1 7/14/1 15/15/1 
f 1/9/1 3/13/1 15/15/1 
f 16/1/1 1/9/1 15/15/1 
# 14 faces

