# 3ds Max Wavefront OBJ Exporter v0.97b - (c)2007 guruware
# File Created: 26.01.2017 22:08:04

mtllib RailRoadGate_Extension.mtl

#
# object RailRoadGate_Extension
#

v  -0.3100 0.8884 -0.0851
v  -0.3100 0.8963 50.7149
v  0.3100 0.8963 50.7149
v  0.3100 0.8884 -0.0851
v  -0.3100 -0.9042 -0.0851
v  0.3100 -0.9042 -0.0851
v  0.3100 -0.8963 50.7149
v  -0.3100 -0.8963 50.7149
v  0.3457 0.9300 -1.4968
v  0.3457 -0.9300 -1.4968
v  -0.3457 -0.9300 -1.4968
v  -0.3457 0.9300 -1.4968
v  0.3457 0.9300 1.4230
v  -0.3457 0.9300 1.4230
v  -0.3457 -0.9300 1.4230
v  0.3457 -0.9300 1.4230
# 16 vertices

vn 0.0000 1.0000 -0.0002
vn -0.0000 -1.0000 0.0002
vn 1.0000 -0.0000 0.0000
vn 0.0000 0.0000 1.0000
vn -1.0000 0.0000 -0.0000
vn 0.0000 0.0000 -1.0000
vn 0.0000 1.0000 0.0000
vn -1.0000 0.0000 0.0000
vn 0.0000 -1.0000 -0.0000
vn -0.0000 -1.0000 -0.0000
vn 1.0000 -0.0000 -0.0000
# 11 vertex normals

vt 0.8791 -2.3669 0.0000
vt 0.8786 -0.6680 0.0000
vt 1.0002 -0.6680 0.0000
vt 0.9997 -2.3669 0.0000
vt 0.8442 -2.3669 0.0000
vt 0.8788 -2.3669 0.0000
vt 0.8792 -0.6680 0.0000
vt 0.8442 -0.6680 0.0000
vt 0.8442 -0.6680 0.0000
vt 0.8442 -2.3669 0.0000
vt 0.9997 -2.3669 0.0000
vt 0.9992 -0.6680 0.0000
vt 0.9531 0.3700 0.0000
vt 0.9274 0.3700 0.0000
vt 0.9274 0.3444 0.0000
vt 0.9531 0.3444 0.0000
vt 0.9532 0.3702 0.0000
vt 0.9271 0.3703 0.0000
vt 0.9274 0.3442 0.0000
vt 0.9534 0.3441 0.0000
vt 0.9538 0.3704 0.0000
vt 0.9269 0.3703 0.0000
vt 0.9267 0.3440 0.0000
vt 0.9536 0.3441 0.0000
vt 0.9279 0.3705 0.0000
vt 0.9527 0.3705 0.0000
vt 0.9527 0.3439 0.0000
vt 0.9279 0.3439 0.0000
# 28 texture coords

g RailRoadGate_Extension
usemtl RailRoadGate
s 2
f 1/1/1 2/2/1 3/9/1 
f 3/9/1 4/10/1 1/1/1 
s 4
f 5/5/2 6/6/2 7/7/2 
f 7/7/2 8/8/2 5/5/2 
s 16
f 4/4/3 3/3/3 7/7/3 
f 7/7/3 6/6/3 4/4/3 
s 32
f 3/13/4 2/14/4 8/15/4 
f 8/15/4 7/16/4 3/13/4 
s 64
f 2/2/5 1/1/5 5/11/5 
f 5/11/5 8/12/5 2/2/5 
s 32
f 9/21/6 10/24/6 11/23/6 
f 11/23/6 12/22/6 9/21/6 
s off
f 13/17/7 9/21/7 12/22/7 
f 12/22/7 14/18/7 13/17/7 
f 14/18/8 12/22/8 11/23/8 
f 11/23/8 15/19/8 14/18/8 
f 15/19/9 11/23/9 10/24/9 
f 10/24/10 16/20/10 15/19/10 
f 16/20/11 10/24/11 9/21/11 
f 9/21/11 13/17/11 16/20/11 
s 32
f 14/25/4 15/28/4 16/27/4 
f 16/27/4 13/26/4 14/25/4 
# 22 faces

