# 3ds Max Wavefront OBJ Exporter v0.97b - (c)2007 guruware
# File Created: 26.01.2017 22:01:51

mtllib TrafficBarrel.mtl

#
# object TrafficBarrel
#

v  -2.5766 -1.4827 0.0000
v  -2.8428 -1.6364 2.3657
v  -3.2813 0.0000 2.3657
v  -2.9739 0.0000 -0.0000
v  -1.4912 -2.5682 0.0000
v  -1.6449 -2.8344 2.3657
v  -0.0084 -2.9655 -0.0000
v  -0.0084 -3.2728 2.3657
v  -3.4620 -1.9939 7.0673
v  -3.9962 0.0000 7.0673
v  -3.6889 0.0000 3.0036
v  -3.1958 -1.8402 3.0036
v  -2.0023 -3.4535 7.0673
v  -1.8486 -3.1873 3.0036
v  -0.0084 -3.9878 7.0673
v  -0.0084 -3.6804 3.0036
v  -4.2870 -0.0000 7.1080
v  -3.7138 -2.1393 7.1080
v  -3.7138 -2.1393 7.4864
v  -4.2870 -0.0000 7.4864
v  -2.1477 -3.7053 7.1080
v  -2.1477 -3.7053 7.4864
v  -0.0084 -4.2786 7.1080
v  -0.0084 -4.2786 7.4864
v  -0.0084 -0.0000 8.4619
v  -1.3115 -2.2569 7.9914
v  -0.0084 -2.6061 7.9914
v  -2.2654 -1.3030 7.9914
v  -2.6145 -0.0000 7.9914
v  -0.0084 -3.5969 7.5485
v  -1.8069 -3.1150 7.5485
v  -3.1234 -1.7984 7.5485
v  -3.6053 -0.0000 7.5485
v  1.4743 -2.5682 0.0000
v  1.6280 -2.8344 2.3657
v  2.5598 -1.4827 0.0000
v  2.8259 -1.6364 2.3657
v  2.9571 -0.0000 -0.0000
v  3.2644 -0.0000 2.3657
v  1.9855 -3.4535 7.0673
v  1.8318 -3.1873 3.0036
v  3.4451 -1.9939 7.0673
v  3.1789 -1.8402 3.0036
v  3.9794 -0.0000 7.0673
v  3.6720 -0.0000 3.0036
v  2.1308 -3.7053 7.1080
v  2.1308 -3.7053 7.4864
v  3.6969 -2.1393 7.1080
v  3.6969 -2.1393 7.4864
v  4.2701 0.0000 7.1080
v  4.2701 0.0000 7.4864
v  2.2485 -1.3030 7.9914
v  2.5976 0.0000 7.9914
v  1.2946 -2.2569 7.9914
v  3.5885 0.0000 7.5485
v  3.1066 -1.7985 7.5485
v  1.7900 -3.1150 7.5485
v  2.5598 1.4827 0.0000
v  2.8259 1.6364 2.3657
v  1.4743 2.5682 0.0000
v  1.6280 2.8344 2.3657
v  -0.0084 2.9655 -0.0000
v  -0.0084 3.2728 2.3657
v  3.4451 1.9939 7.0673
v  3.1789 1.8402 3.0036
v  1.9855 3.4535 7.0673
v  1.8318 3.1873 3.0036
v  -0.0084 3.9878 7.0673
v  -0.0084 3.6804 3.0036
v  3.6969 2.1393 7.1080
v  3.6969 2.1393 7.4864
v  2.1309 3.7053 7.1080
v  2.1309 3.7053 7.4864
v  -0.0084 4.2786 7.1080
v  -0.0084 4.2786 7.4864
v  1.2946 2.2569 7.9914
v  -0.0084 2.6061 7.9914
v  2.2485 1.3030 7.9914
v  -0.0084 3.5969 7.5485
v  1.7900 3.1150 7.5485
v  3.1066 1.7984 7.5485
v  -1.4912 2.5682 0.0000
v  -1.6449 2.8344 2.3657
v  -2.5766 1.4827 0.0000
v  -2.8428 1.6364 2.3657
v  -2.0023 3.4535 7.0673
v  -1.8486 3.1873 3.0036
v  -3.4620 1.9939 7.0673
v  -3.1958 1.8402 3.0036
v  -2.1477 3.7053 7.1080
v  -2.1477 3.7053 7.4864
v  -3.7138 2.1393 7.1080
v  -3.7138 2.1393 7.4864
v  -2.2654 1.3030 7.9914
v  -1.3115 2.2569 7.9914
v  -3.1234 1.7985 7.5485
v  -1.8069 3.1150 7.5485
# 97 vertices

vn -0.8588 -0.4958 -0.1288
vn -0.8099 -0.4676 -0.3540
vn -0.9352 0.0000 -0.3540
vn -0.9917 0.0000 -0.1288
vn -0.4958 -0.8588 -0.1288
vn -0.4676 -0.8099 -0.3540
vn -0.0000 -0.9917 -0.1288
vn -0.0000 -0.9352 -0.3540
vn -0.8636 -0.4986 -0.0754
vn -0.9972 0.0000 -0.0754
vn -0.9523 0.0000 -0.3050
vn -0.8247 -0.4762 -0.3050
vn -0.4986 -0.8636 -0.0754
vn -0.4762 -0.8247 -0.3050
vn -0.0000 -0.9972 -0.0754
vn -0.0000 -0.9523 -0.3050
vn -1.0000 0.0000 -0.0000
vn -0.8660 -0.5000 0.0000
vn -1.0000 0.0000 0.0000
vn -0.5000 -0.8660 -0.0000
vn -0.5000 -0.8660 0.0000
vn -0.0000 -1.0000 -0.0000
vn -0.0000 -1.0000 0.0000
vn -0.1388 0.0000 -0.9903
vn -0.1202 -0.0694 -0.9903
vn -0.1388 -0.0000 -0.9903
vn -0.0694 -0.1202 -0.9903
vn -0.0000 -0.1388 -0.9903
vn 0.0000 -0.1388 -0.9903
vn -0.0000 -0.0000 1.0000
vn -0.1566 -0.2712 0.9497
vn -0.0000 -0.3131 0.9497
vn -0.2712 -0.1566 0.9497
vn -0.3131 0.0000 0.9497
vn -0.0454 -0.0786 0.9959
vn -0.0000 -0.0908 0.9959
vn -0.0786 -0.0454 0.9959
vn -0.0908 0.0000 0.9959
vn -0.2040 -0.3534 0.9130
vn -0.0000 -0.4080 0.9130
vn -0.3534 -0.2040 0.9130
vn -0.4080 0.0000 0.9130
vn 0.4958 -0.8588 -0.1288
vn 0.4676 -0.8099 -0.3540
vn 0.8588 -0.4958 -0.1288
vn 0.8099 -0.4676 -0.3540
vn 0.9917 -0.0000 -0.1288
vn 0.9352 -0.0000 -0.3540
vn 0.4986 -0.8636 -0.0754
vn 0.4762 -0.8247 -0.3050
vn 0.8636 -0.4986 -0.0754
vn 0.8247 -0.4762 -0.3050
vn 0.9972 -0.0000 -0.0754
vn 0.9523 -0.0000 -0.3050
vn 0.5000 -0.8660 0.0000
vn 0.8660 -0.5000 -0.0000
vn 0.8660 -0.5000 0.0000
vn 1.0000 -0.0000 -0.0000
vn 1.0000 -0.0000 0.0000
vn 0.0694 -0.1202 -0.9903
vn 0.1202 -0.0694 -0.9903
vn 0.1388 -0.0000 -0.9903
vn 0.1388 0.0000 -0.9903
vn 0.2712 -0.1566 0.9497
vn 0.3131 -0.0000 0.9497
vn 0.1566 -0.2712 0.9497
vn 0.0786 -0.0454 0.9959
vn 0.0908 -0.0000 0.9959
vn 0.0454 -0.0786 0.9959
vn 0.3534 -0.2040 0.9130
vn 0.4080 -0.0000 0.9130
vn 0.2040 -0.3534 0.9130
vn 0.8588 0.4958 -0.1288
vn 0.8099 0.4676 -0.3540
vn 0.4958 0.8588 -0.1288
vn 0.4676 0.8099 -0.3540
vn 0.0000 0.9917 -0.1288
vn 0.0000 0.9352 -0.3540
vn 0.8636 0.4986 -0.0754
vn 0.8247 0.4762 -0.3050
vn 0.4986 0.8636 -0.0754
vn 0.4762 0.8247 -0.3050
vn 0.0000 0.9972 -0.0754
vn 0.0000 0.9523 -0.3050
vn 0.8660 0.5000 0.0000
vn 0.5000 0.8660 -0.0000
vn 0.5000 0.8660 0.0000
vn 0.0000 1.0000 -0.0000
vn 0.0000 1.0000 0.0000
vn 0.1202 0.0694 -0.9903
vn 0.0694 0.1202 -0.9903
vn 0.0000 0.1388 -0.9903
vn -0.0000 0.1388 -0.9903
vn 0.1566 0.2712 0.9497
vn 0.0000 0.3131 0.9497
vn 0.2712 0.1566 0.9497
vn 0.0454 0.0786 0.9959
vn 0.0000 0.0908 0.9959
vn 0.0786 0.0454 0.9959
vn 0.2040 0.3534 0.9130
vn 0.0000 0.4080 0.9130
vn 0.3534 0.2040 0.9130
vn -0.4958 0.8588 -0.1288
vn -0.4676 0.8099 -0.3540
vn -0.8588 0.4958 -0.1288
vn -0.8099 0.4676 -0.3540
vn -0.4986 0.8636 -0.0754
vn -0.4762 0.8247 -0.3050
vn -0.8636 0.4986 -0.0754
vn -0.8247 0.4762 -0.3050
vn -0.5000 0.8660 0.0000
vn -0.8660 0.5000 -0.0000
vn -0.8660 0.5000 0.0000
vn -0.0694 0.1202 -0.9903
vn -0.1202 0.0694 -0.9903
vn -0.2712 0.1566 0.9497
vn -0.1566 0.2712 0.9497
vn -0.0786 0.0454 0.9959
vn -0.0454 0.0786 0.9959
vn -0.3534 0.2040 0.9130
vn -0.2040 0.3534 0.9130
# 121 vertex normals

vt 0.0020 0.0020 0.0000
vt 0.0020 0.2648 0.0000
vt 0.1823 0.0020 0.0000
vt 0.1823 0.2648 0.0000
vt 0.3623 0.0020 0.0000
vt 0.3623 0.2648 0.0000
vt 0.5649 0.0020 0.0000
vt 0.5649 0.2648 0.0000
vt 0.0020 0.3433 0.0000
vt 0.0020 0.7277 0.0000
vt 0.1823 0.3433 0.0000
vt 0.1823 0.7277 0.0000
vt 0.3623 0.3433 0.0000
vt 0.3623 0.7277 0.0000
vt 0.5649 0.3433 0.0000
vt 0.5649 0.7277 0.0000
vt 0.5140 0.9984 0.0000
vt 0.5548 0.9984 0.0000
vt 0.5838 0.7565 0.0000
vt 0.6176 0.7766 0.0000
vt 0.7610 0.5841 0.0000
vt 0.7802 0.6179 0.0000
vt 0.9986 0.5216 0.0000
vt 0.9986 0.5604 0.0000
vt 0.6278 0.5920 0.0000
vt 0.9986 0.9983 0.0000
vt 0.9989 0.7393 0.0000
vt 0.8693 0.7736 0.0000
vt 0.7738 0.8680 0.0000
vt 0.7382 0.9979 0.0000
vt 0.9986 0.6300 0.0000
vt 0.8147 0.6786 0.0000
vt 0.6784 0.8126 0.0000
vt 0.6269 0.9983 0.0000
vt 0.6586 0.5920 0.0000
vt 0.6278 0.3983 0.0000
vt 0.6586 0.3983 0.0000
vt 0.6278 0.2045 0.0000
vt 0.6586 0.2045 0.0000
vt 0.6278 0.0039 0.0000
vt 0.6586 0.0039 0.0000
vt 0.0020 0.0020 0.0000
vt 0.0020 0.2648 0.0000
vt 0.1823 0.0020 0.0000
vt 0.1823 0.2648 0.0000
vt 0.3623 0.0020 0.0000
vt 0.3623 0.2648 0.0000
vt 0.5649 0.0020 0.0000
vt 0.5649 0.2648 0.0000
vt 0.0020 0.3433 0.0000
vt 0.0020 0.7277 0.0000
vt 0.1823 0.3433 0.0000
vt 0.1823 0.7277 0.0000
vt 0.3623 0.3433 0.0000
vt 0.3623 0.7277 0.0000
vt 0.5649 0.3433 0.0000
vt 0.5649 0.7277 0.0000
vt 0.5140 0.9984 0.0000
vt 0.5548 0.9984 0.0000
vt 0.5838 0.7565 0.0000
vt 0.6176 0.7766 0.0000
vt 0.7610 0.5841 0.0000
vt 0.7802 0.6179 0.0000
vt 0.9986 0.5216 0.0000
vt 0.9986 0.5604 0.0000
vt 0.6278 0.5920 0.0000
vt 0.9986 0.9983 0.0000
vt 0.9989 0.7393 0.0000
vt 0.8693 0.7736 0.0000
vt 0.7738 0.8680 0.0000
vt 0.7382 0.9979 0.0000
vt 0.9986 0.6300 0.0000
vt 0.8147 0.6786 0.0000
vt 0.6784 0.8126 0.0000
vt 0.6269 0.9983 0.0000
vt 0.6586 0.5920 0.0000
vt 0.6278 0.3983 0.0000
vt 0.6586 0.3983 0.0000
vt 0.6278 0.2045 0.0000
vt 0.6586 0.2045 0.0000
vt 0.6278 0.0039 0.0000
vt 0.6586 0.0039 0.0000
vt 0.0020 0.0020 0.0000
vt 0.0020 0.2648 0.0000
vt 0.1823 0.0020 0.0000
vt 0.1823 0.2648 0.0000
vt 0.3623 0.0020 0.0000
vt 0.3623 0.2648 0.0000
vt 0.5649 0.0020 0.0000
vt 0.5649 0.2648 0.0000
vt 0.0020 0.3433 0.0000
vt 0.0020 0.7277 0.0000
vt 0.1823 0.3433 0.0000
vt 0.1823 0.7277 0.0000
vt 0.3623 0.3433 0.0000
vt 0.3623 0.7277 0.0000
vt 0.5649 0.3433 0.0000
vt 0.5649 0.7277 0.0000
vt 0.5140 0.9984 0.0000
vt 0.5548 0.9984 0.0000
vt 0.5838 0.7565 0.0000
vt 0.6176 0.7766 0.0000
vt 0.7610 0.5841 0.0000
vt 0.7802 0.6179 0.0000
vt 0.9986 0.5216 0.0000
vt 0.9986 0.5604 0.0000
vt 0.6278 0.5920 0.0000
vt 0.9986 0.9983 0.0000
vt 0.9989 0.7393 0.0000
vt 0.8693 0.7736 0.0000
vt 0.7738 0.8680 0.0000
vt 0.7382 0.9979 0.0000
vt 0.9986 0.6300 0.0000
vt 0.8147 0.6786 0.0000
vt 0.6784 0.8126 0.0000
vt 0.6269 0.9983 0.0000
vt 0.6586 0.5920 0.0000
vt 0.6278 0.3983 0.0000
vt 0.6586 0.3983 0.0000
vt 0.6278 0.2045 0.0000
vt 0.6586 0.2045 0.0000
vt 0.6278 0.0039 0.0000
vt 0.6586 0.0039 0.0000
vt 0.0020 0.0020 0.0000
vt 0.0020 0.2648 0.0000
vt 0.1823 0.0020 0.0000
vt 0.1823 0.2648 0.0000
vt 0.3623 0.0020 0.0000
vt 0.3623 0.2648 0.0000
vt 0.5649 0.0020 0.0000
vt 0.5649 0.2648 0.0000
vt 0.0020 0.3433 0.0000
vt 0.0020 0.7277 0.0000
vt 0.1823 0.3433 0.0000
vt 0.1823 0.7277 0.0000
vt 0.3623 0.3433 0.0000
vt 0.3623 0.7277 0.0000
vt 0.5649 0.3433 0.0000
vt 0.5649 0.7277 0.0000
vt 0.5140 0.9984 0.0000
vt 0.5548 0.9984 0.0000
vt 0.5838 0.7565 0.0000
vt 0.6176 0.7766 0.0000
vt 0.7610 0.5841 0.0000
vt 0.7802 0.6179 0.0000
vt 0.9986 0.5216 0.0000
vt 0.9986 0.5604 0.0000
vt 0.6278 0.5920 0.0000
vt 0.9986 0.9983 0.0000
vt 0.9989 0.7393 0.0000
vt 0.8693 0.7736 0.0000
vt 0.7738 0.8680 0.0000
vt 0.7382 0.9979 0.0000
vt 0.9986 0.6300 0.0000
vt 0.8147 0.6786 0.0000
vt 0.6784 0.8126 0.0000
vt 0.6269 0.9983 0.0000
vt 0.6586 0.5920 0.0000
vt 0.6278 0.3983 0.0000
vt 0.6586 0.3983 0.0000
vt 0.6278 0.2045 0.0000
vt 0.6586 0.2045 0.0000
vt 0.6278 0.0039 0.0000
vt 0.6586 0.0039 0.0000
# 164 texture coords

g TrafficBarrel
usemtl TrafficBarrel
s 1
f 1/3/1 2/4/2 3/2/3 
f 3/2/3 4/1/4 1/3/1 
f 5/5/5 6/6/6 2/4/2 
f 2/4/2 1/3/1 5/5/5 
f 7/7/7 8/8/8 6/6/6 
f 6/6/6 5/5/5 7/7/7 
f 9/12/9 10/10/10 11/9/11 
f 11/9/11 12/11/12 9/12/9 
f 13/14/13 9/12/9 12/11/12 
f 12/11/12 14/13/14 13/14/13 
f 15/16/15 13/14/13 14/13/14 
f 14/13/14 16/15/16 15/16/15 
f 12/11/12 11/9/11 3/2/3 
f 3/2/3 2/4/2 12/11/12 
f 14/13/14 12/11/12 2/4/2 
f 2/4/2 6/6/6 14/13/14 
f 16/15/16 14/13/14 6/6/6 
f 6/6/6 8/8/8 16/15/16 
s 16
f 17/17/17 18/19/18 19/20/18 
f 19/20/18 20/18/19 17/17/17 
f 18/19/18 21/21/20 22/22/21 
f 22/22/21 19/20/18 18/19/18 
f 21/21/20 23/23/22 24/24/23 
f 24/24/23 22/22/21 21/21/20 
s 8
f 10/25/24 9/36/25 18/37/25 
f 18/37/25 17/35/26 10/25/24 
f 9/36/25 13/38/27 21/39/27 
f 21/39/27 18/37/25 9/36/25 
f 13/38/27 15/40/28 23/41/29 
f 23/41/29 21/39/27 13/38/27 
s 64
f 25/26/30 26/28/31 27/27/32 
f 25/26/30 28/29/33 26/28/31 
f 25/26/30 29/30/34 28/29/33 
s 32
f 22/22/35 24/24/36 30/31/36 
f 30/31/36 31/32/35 22/22/35 
f 19/20/37 22/22/35 31/32/35 
f 31/32/35 32/33/37 19/20/37 
f 20/18/38 19/20/37 32/33/37 
f 32/33/37 33/34/38 20/18/38 
s 64
f 31/32/39 30/31/40 27/27/32 
f 27/27/32 26/28/31 31/32/39 
f 32/33/41 31/32/39 26/28/31 
f 26/28/31 28/29/33 32/33/41 
f 33/34/42 32/33/41 28/29/33 
f 28/29/33 29/30/34 33/34/42 
s 1
f 34/44/43 35/45/44 8/43/8 
f 8/43/8 7/42/7 34/44/43 
f 36/46/45 37/47/46 35/45/44 
f 35/45/44 34/44/43 36/46/45 
f 38/48/47 39/49/48 37/47/46 
f 37/47/46 36/46/45 38/48/47 
f 40/53/49 15/51/15 16/50/16 
f 16/50/16 41/52/50 40/53/49 
f 42/55/51 40/53/49 41/52/50 
f 41/52/50 43/54/52 42/55/51 
f 44/57/53 42/55/51 43/54/52 
f 43/54/52 45/56/54 44/57/53 
f 41/52/50 16/50/16 8/43/8 
f 8/43/8 35/45/44 41/52/50 
f 43/54/52 41/52/50 35/45/44 
f 35/45/44 37/47/46 43/54/52 
f 45/56/54 43/54/52 37/47/46 
f 37/47/46 39/49/48 45/56/54 
s 16
f 23/58/22 46/60/55 47/61/55 
f 47/61/55 24/59/23 23/58/22 
f 46/60/55 48/62/56 49/63/57 
f 49/63/57 47/61/55 46/60/55 
f 48/62/56 50/64/58 51/65/59 
f 51/65/59 49/63/57 48/62/56 
s 8
f 15/66/28 40/77/60 46/78/60 
f 46/78/60 23/76/29 15/66/28 
f 40/77/60 42/79/61 48/80/61 
f 48/80/61 46/78/60 40/77/60 
f 42/79/61 44/81/62 50/82/63 
f 50/82/63 48/80/61 42/79/61 
s 64
f 25/67/30 52/69/64 53/68/65 
f 25/67/30 54/70/66 52/69/64 
f 25/67/30 27/71/32 54/70/66 
s 32
f 49/63/67 51/65/68 55/72/68 
f 55/72/68 56/73/67 49/63/67 
f 47/61/69 49/63/67 56/73/67 
f 56/73/67 57/74/69 47/61/69 
f 24/59/36 47/61/69 57/74/69 
f 57/74/69 30/75/36 24/59/36 
s 64
f 56/73/70 55/72/71 53/68/65 
f 53/68/65 52/69/64 56/73/70 
f 57/74/72 56/73/70 52/69/64 
f 52/69/64 54/70/66 57/74/72 
f 30/75/40 57/74/72 54/70/66 
f 54/70/66 27/71/32 30/75/40 
s 1
f 58/85/73 59/86/74 39/84/48 
f 39/84/48 38/83/47 58/85/73 
f 60/87/75 61/88/76 59/86/74 
f 59/86/74 58/85/73 60/87/75 
f 62/89/77 63/90/78 61/88/76 
f 61/88/76 60/87/75 62/89/77 
f 64/94/79 44/92/53 45/91/54 
f 45/91/54 65/93/80 64/94/79 
f 66/96/81 64/94/79 65/93/80 
f 65/93/80 67/95/82 66/96/81 
f 68/98/83 66/96/81 67/95/82 
f 67/95/82 69/97/84 68/98/83 
f 65/93/80 45/91/54 39/84/48 
f 39/84/48 59/86/74 65/93/80 
f 67/95/82 65/93/80 59/86/74 
f 59/86/74 61/88/76 67/95/82 
f 69/97/84 67/95/82 61/88/76 
f 61/88/76 63/90/78 69/97/84 
s 16
f 50/99/58 70/101/85 71/102/85 
f 71/102/85 51/100/59 50/99/58 
f 70/101/85 72/103/86 73/104/87 
f 73/104/87 71/102/85 70/101/85 
f 72/103/86 74/105/88 75/106/89 
f 75/106/89 73/104/87 72/103/86 
s 8
f 44/107/62 64/118/90 70/119/90 
f 70/119/90 50/117/63 44/107/62 
f 64/118/90 66/120/91 72/121/91 
f 72/121/91 70/119/90 64/118/90 
f 66/120/91 68/122/92 74/123/93 
f 74/123/93 72/121/91 66/120/91 
s 64
f 25/108/30 76/110/94 77/109/95 
f 25/108/30 78/111/96 76/110/94 
f 25/108/30 53/112/65 78/111/96 
s 32
f 73/104/97 75/106/98 79/113/98 
f 79/113/98 80/114/97 73/104/97 
f 71/102/99 73/104/97 80/114/97 
f 80/114/97 81/115/99 71/102/99 
f 51/100/68 71/102/99 81/115/99 
f 81/115/99 55/116/68 51/100/68 
s 64
f 80/114/100 79/113/101 77/109/95 
f 77/109/95 76/110/94 80/114/100 
f 81/115/102 80/114/100 76/110/94 
f 76/110/94 78/111/96 81/115/102 
f 55/116/71 81/115/102 78/111/96 
f 78/111/96 53/112/65 55/116/71 
s 1
f 82/126/103 83/127/104 63/125/78 
f 63/125/78 62/124/77 82/126/103 
f 84/128/105 85/129/106 83/127/104 
f 83/127/104 82/126/103 84/128/105 
f 4/130/4 3/131/3 85/129/106 
f 85/129/106 84/128/105 4/130/4 
f 86/135/107 68/133/83 69/132/84 
f 69/132/84 87/134/108 86/135/107 
f 88/137/109 86/135/107 87/134/108 
f 87/134/108 89/136/110 88/137/109 
f 10/139/10 88/137/109 89/136/110 
f 89/136/110 11/138/11 10/139/10 
f 87/134/108 69/132/84 63/125/78 
f 63/125/78 83/127/104 87/134/108 
f 89/136/110 87/134/108 83/127/104 
f 83/127/104 85/129/106 89/136/110 
f 11/138/11 89/136/110 85/129/106 
f 85/129/106 3/131/3 11/138/11 
s 16
f 74/140/88 90/142/111 91/143/111 
f 91/143/111 75/141/89 74/140/88 
f 90/142/111 92/144/112 93/145/113 
f 93/145/113 91/143/111 90/142/111 
f 92/144/112 17/146/17 20/147/19 
f 20/147/19 93/145/113 92/144/112 
s 8
f 68/148/92 86/159/114 90/160/114 
f 90/160/114 74/158/93 68/148/92 
f 86/159/114 88/161/115 92/162/115 
f 92/162/115 90/160/114 86/159/114 
f 88/161/115 10/163/24 17/164/26 
f 17/164/26 92/162/115 88/161/115 
s 64
f 25/149/30 94/151/116 29/150/34 
f 25/149/30 95/152/117 94/151/116 
f 25/149/30 77/153/95 95/152/117 
s 32
f 93/145/118 20/147/38 33/154/38 
f 33/154/38 96/155/118 93/145/118 
f 91/143/119 93/145/118 96/155/118 
f 96/155/118 97/156/119 91/143/119 
f 75/141/98 91/143/119 97/156/119 
f 97/156/119 79/157/98 75/141/98 
s 64
f 96/155/120 33/154/42 29/150/34 
f 29/150/34 94/151/116 96/155/120 
f 97/156/121 96/155/120 94/151/116 
f 94/151/116 95/152/117 97/156/121 
f 79/157/101 97/156/121 95/152/117 
f 95/152/117 77/153/95 79/157/101 
# 180 faces

